<?xml version="1.0" encoding="UTF-8"?>
<svg version="1.1" xmlns="http://www.w3.org/2000/svg" width="441" height="565">
<path d="M0 0 C145.53 0 291.06 0 441 0 C441 186.45 441 372.9 441 565 C295.47 565 149.94 565 0 565 C0 378.55 0 192.1 0 0 Z " fill="#000000" transform="translate(0,0)"/>
<path d="M0 0 C2.18369031 0.95661662 4.3436437 1.44164455 6.703125 1.74609375 C6.703125 2.40609375 6.703125 3.06609375 6.703125 3.74609375 C7.56035156 3.9884375 8.41757812 4.23078125 9.30078125 4.48046875 C12.99693045 5.85538533 15.97731258 7.69687013 19.140625 9.99609375 C20.04035034 10.64928589 20.04035034 10.64928589 20.95825195 11.31567383 C33.64118879 20.75356558 44.05758826 31.5174254 52.703125 44.74609375 C53.70279297 46.27363281 53.70279297 46.27363281 54.72265625 47.83203125 C66.15666424 66.41540807 70.90692625 87.22466974 70.890625 108.87109375 C70.88981934 109.9789624 70.88901367 111.08683105 70.88818359 112.22827148 C70.67954402 140.16347461 61.0638311 167.53569063 42.703125 188.74609375 C42.07792969 189.5040625 41.45273437 190.26203125 40.80859375 191.04296875 C35.70868083 197.06730581 29.96284959 201.95872692 23.703125 206.74609375 C22.91164063 207.35324219 22.12015625 207.96039063 21.3046875 208.5859375 C-4.11414601 227.20671089 -35.80739513 235.24841274 -66.921875 230.55859375 C-82.09608597 227.97298404 -94.89313783 222.83890058 -108.51806641 215.76000977 C-120.352376 209.76995368 -128.3372026 212.25794205 -140.609375 215.62109375 C-162.34815394 221.51153486 -162.34815394 221.51153486 -167.296875 221.74609375 C-167.956875 221.08609375 -168.616875 220.42609375 -169.296875 219.74609375 C-168.94940273 214.6035042 -167.0209766 210.09444483 -165.109375 205.37109375 C-164.48004473 203.77620892 -163.85114768 202.18115308 -163.22265625 200.5859375 C-162.27493025 198.19866406 -161.32377632 195.81293135 -160.36474609 193.43017578 C-159.4975138 191.26891808 -158.64607359 189.10198764 -157.796875 186.93359375 C-157.52979736 186.28277832 -157.26271973 185.63196289 -156.98754883 184.96142578 C-155.49041254 181.10441387 -154.90581455 178.66912827 -156.296875 174.74609375 C-157.50228515 172.25078208 -158.74480844 169.81406386 -160.046875 167.37109375 C-163.99888367 159.68520962 -166.94425446 152.08720292 -169.296875 143.74609375 C-169.6165625 142.68390625 -169.93625 141.62171875 -170.265625 140.52734375 C-174.90237329 122.15208203 -174.16485059 100.02887231 -169.296875 81.74609375 C-169.11415039 81.05257812 -168.93142578 80.3590625 -168.74316406 79.64453125 C-163.62132778 60.87287514 -154.35105931 43.19362623 -141.296875 28.74609375 C-140.58362061 27.95235352 -140.58362061 27.95235352 -139.85595703 27.14257812 C-132.82963383 19.45188824 -125.19300853 13.2236579 -116.296875 7.74609375 C-115.67796387 7.36324219 -115.05905273 6.98039062 -114.42138672 6.5859375 C-79.46358848 -14.73172361 -37.21117935 -17.65333509 0 0 Z " fill="#010101" transform="translate(272.296875,174.25390625)"/>
<path d="M0 0 C4.75814358 2.66873921 8.00029965 6.12589896 9.75 11.375 C10.15289763 16.71339355 9.42549421 19.76983518 6.75 24.375 C4.65625 26.61328125 4.65625 26.61328125 2.25 28.6875 C0.91582031 29.84572266 0.91582031 29.84572266 -0.4453125 31.02734375 C-4.06391602 34.05628625 -7.72878436 37.02545384 -11.3984375 39.9921875 C-14.96098248 42.96910865 -18.35765429 46.09964917 -21.74267578 49.27539062 C-26.0284608 53.26516889 -30.563182 56.8110646 -35.265625 60.3046875 C-37.46074482 62.22024137 -37.46074482 62.22024137 -37.74609375 64.94140625 C-37.13994367 67.91488262 -36.43929453 68.59977227 -34.0625 70.4375 C-30.26485468 73.52642982 -26.6424789 76.7274614 -23.0625 80.0625 C-21.94024275 81.10171218 -20.81784462 82.14077224 -19.6953125 83.1796875 C-17.97079232 84.77871673 -16.24662746 86.37812851 -14.52246094 87.97753906 C-12.82829875 89.54841941 -11.13314939 91.11822518 -9.4375 92.6875 C-8.89456299 93.19063721 -8.35162598 93.69377441 -7.79223633 94.2121582 C-4.82643918 96.95160026 -1.82051681 99.62882711 1.25 102.25 C9.47519488 109.48189804 9.47519488 109.48189804 10.3125 115.25 C9.90880943 121.10351332 7.46254184 125.74808526 3.25 129.75 C-2.6584223 133.59047449 -7.23053633 134.04451665 -14.25 133.375 C-25.3319489 128.79767328 -34.10915495 114.03855473 -41.1875 104.5625 C-41.68000244 103.90338623 -42.17250488 103.24427246 -42.67993164 102.56518555 C-45.33099932 98.99986754 -47.94581339 95.4111656 -50.53515625 91.80078125 C-51.07342041 91.05997314 -51.61168457 90.31916504 -52.16625977 89.5559082 C-53.20257615 88.12883648 -54.22829395 86.69399269 -55.24194336 85.25073242 C-56.77654559 83.08466811 -56.77654559 83.08466811 -59.25 80.375 C-60.57 80.375 -61.89 80.375 -63.25 80.375 C-63.24920441 80.92321915 -63.24840881 81.47143829 -63.24758911 82.03627014 C-63.24514355 87.76359916 -63.28448627 93.48957959 -63.34765625 99.21655273 C-63.36577848 101.35125457 -63.37339164 103.48607337 -63.37011719 105.62084961 C-63.36724931 108.69736563 -63.40267673 111.77147462 -63.4453125 114.84765625 C-63.4316716 116.26994286 -63.4316716 116.26994286 -63.41775513 117.72096252 C-63.54415447 123.53725125 -64.54663164 126.76357412 -68.57516479 131.01853943 C-74.18999011 135.56602513 -80.28379354 134.70629071 -87.1875 134.6875 C-88.36763672 134.70361328 -89.54777344 134.71972656 -90.76367188 134.73632812 C-92.47200195 134.73729492 -92.47200195 134.73729492 -94.21484375 134.73828125 C-95.77126587 134.74275269 -95.77126587 134.74275269 -97.35913086 134.74731445 C-101.98855284 134.15109213 -105.14953132 131.93111446 -108 128.3125 C-110.74053466 124.73457975 -111.37410311 123.24657969 -111.4173584 118.86044312 C-111.42884918 117.9100415 -111.44033997 116.95963989 -111.45217896 115.98043823 C-111.45958099 114.93421295 -111.46698303 113.88798767 -111.47460938 112.81005859 C-111.48599945 111.71070984 -111.49738953 110.61136108 -111.50912476 109.47869873 C-111.60672533 99.33080044 -111.65807987 89.18226223 -111.69481659 79.03397179 C-111.72236003 71.53661333 -111.77305698 64.04020415 -111.85529089 56.5432409 C-111.91794064 50.63049913 -111.94205249 44.717964 -111.95307922 38.80488968 C-111.96348521 36.29386196 -111.98592179 33.7828539 -112.02067566 31.27204514 C-112.06686798 27.7527042 -112.06888226 24.23588541 -112.06054688 20.71630859 C-112.08414276 19.6822287 -112.10773865 18.6481488 -112.13204956 17.58273315 C-112.05647238 10.97732847 -110.65383802 7.59992883 -106.00588322 2.87093067 C-100.52936336 -1.79480902 -94.12782265 -0.95791738 -87.3125 -0.9375 C-86.24064453 -0.95361328 -85.16878906 -0.96972656 -84.06445312 -0.98632812 C-78.40942047 -0.98982969 -74.0725494 -0.93459272 -69.25 2.375 C-64.43758347 7.70767778 -64.06899249 11.31539596 -63.93359375 18.3203125 C-63.91281265 19.2053244 -63.89203156 20.0903363 -63.87062073 21.00216675 C-63.80513402 23.83469741 -63.74624438 26.66732225 -63.6875 29.5 C-63.64431394 31.41797857 -63.60069963 33.33594754 -63.55664062 35.25390625 C-63.44945353 39.96084051 -63.3481836 44.66786967 -63.25 49.375 C-59.37901343 48.87398619 -57.61005907 48.22949804 -55.19140625 45.15625 C-54.64774414 44.47973389 -54.10408203 43.80321777 -53.54394531 43.10620117 C-52.97256836 42.36990479 -52.40119141 41.6336084 -51.8125 40.875 C-50.569345 39.31874309 -49.32584552 37.7627613 -48.08203125 36.20703125 C-47.44861816 35.40604004 -46.81520508 34.60504883 -46.16259766 33.77978516 C-43.15691582 30.00062176 -40.07852102 26.28237956 -37 22.5625 C-32.15468732 16.7064416 -32.15468732 16.7064416 -27.39453125 10.78125 C-19.91914297 1.40001805 -12.37950203 -5.54862803 0 0 Z " fill="#F8877A" transform="translate(272.25,215.625)"/>
<path d="M0 0 C0 2 0 2 -2.3125 4.8125 C-4.56860339 6.61421254 -5.51770083 7.0473756 -8.42578125 6.76171875 C-11.32577477 5.94334142 -14.15371039 4.98855406 -17 4 C-47.27477608 -4.56214912 -76.0430812 -2.05499527 -104 12.4375 C-130.33941022 27.42659403 -149.12657612 50.81338718 -158.12109375 79.75390625 C-166.8331173 111.93031324 -161.66118489 142.97110918 -146 172 C-145.36320312 172.79148437 -144.72640625 173.58296875 -144.0703125 174.3984375 C-142.32131814 178.64964277 -144.35170453 181.90664991 -146 186 C-146.53365034 187.54338148 -147.05724396 189.09027996 -147.5703125 190.640625 C-148.35319469 192.961733 -149.13614918 195.28274053 -149.92578125 197.6015625 C-150.17972656 198.35695313 -150.43367188 199.11234375 -150.6953125 199.890625 C-150.92234863 200.56125977 -151.14938477 201.23189453 -151.38330078 201.92285156 C-152.07737445 204.26061039 -152.55300466 206.6038546 -153 209 C-152.09233887 208.75241943 -151.18467773 208.50483887 -150.24951172 208.24975586 C-146.8638032 207.33245953 -143.47553132 206.42618326 -140.08496094 205.52709961 C-138.62122966 205.13658801 -137.15863606 204.74178487 -135.69726562 204.3425293 C-133.59012496 203.76765884 -131.47930455 203.20861293 -129.3671875 202.65234375 C-128.09987793 202.31195068 -126.83256836 201.97155762 -125.52685547 201.62084961 C-118.93233086 200.45998321 -114.40781347 202.5678981 -108.6875 205.625 C-78.38244953 221.23123594 -48.49498028 226.6877248 -15.2734375 216.90234375 C-1.19967558 212.21638465 11.61195295 205.52877406 23 196 C23.50515137 195.58379395 24.01030273 195.16758789 24.53076172 194.73876953 C32.49136785 188.11448814 38.6337183 180.92788411 44 172 C44.35046387 171.41734375 44.70092773 170.8346875 45.06201172 170.234375 C61.31954751 142.65128061 65.24328511 110.68944512 57.4140625 79.67919922 C50.45093269 54.28204286 34.13719795 30.14647598 11.05078125 16.87988281 C6.74660337 14.49562668 2.38759696 12.22636499 -2 10 C-2 8 -2 8 0.6875 5.3125 C2.19921875 3.92578125 2.19921875 3.92578125 4 3 C8.45251988 3.22639932 11.80084791 5.42823889 15.4375 7.8125 C16.04295654 8.20703369 16.64841309 8.60156738 17.2722168 9.00805664 C44.72068623 27.36725358 63.17240364 54.70164316 69.63989258 87.03515625 C70.99350633 94.42083994 71.19314417 101.6301084 71.1875 109.125 C71.18669434 110.23286865 71.18588867 111.3407373 71.18505859 112.48217773 C70.97641902 140.41738086 61.3607061 167.78959688 43 189 C42.37480469 189.75796875 41.74960937 190.5159375 41.10546875 191.296875 C36.00555583 197.32121206 30.25972459 202.21263317 24 207 C23.20851563 207.60714844 22.41703125 208.21429688 21.6015625 208.83984375 C-3.81727101 227.46061714 -35.51052013 235.50231899 -66.625 230.8125 C-81.79921097 228.22689029 -94.59626283 223.09280683 -108.22119141 216.01391602 C-120.055501 210.02385993 -128.0403276 212.5118483 -140.3125 215.875 C-162.05127894 221.76544111 -162.05127894 221.76544111 -167 222 C-167.66 221.34 -168.32 220.68 -169 220 C-168.65252773 214.85741045 -166.7241016 210.34835108 -164.8125 205.625 C-164.18316973 204.03011517 -163.55427268 202.43505933 -162.92578125 200.83984375 C-161.97805525 198.45257031 -161.02690132 196.0668376 -160.06787109 193.68408203 C-159.2006388 191.52282433 -158.34919859 189.35589389 -157.5 187.1875 C-157.23292236 186.53668457 -156.96584473 185.88586914 -156.69067383 185.21533203 C-155.19353754 181.35832012 -154.60893955 178.92303452 -156 175 C-157.20541015 172.50468833 -158.44793344 170.06797011 -159.75 167.625 C-163.70200867 159.93911587 -166.64737946 152.34110917 -169 144 C-169.3196875 142.9378125 -169.639375 141.875625 -169.96875 140.78125 C-174.60549829 122.40598828 -173.86797559 100.28277856 -169 82 C-168.81727539 81.30648437 -168.63455078 80.61296875 -168.44628906 79.8984375 C-163.32445278 61.12678139 -154.05418431 43.44753248 -141 29 C-140.28674561 28.20625977 -140.28674561 28.20625977 -139.55908203 27.39648438 C-132.53275883 19.70579449 -124.89613353 13.47756415 -116 8 C-115.38108887 7.61714844 -114.76217773 7.23429687 -114.12451172 6.83984375 C-78.7800554 -14.71360584 -37.76456222 -16.66815328 0 0 Z " fill="#62E7E2" transform="translate(272,174)"/>
<path d="M0 0 C3.37122651 1.10419883 6.18705715 2.76401697 9.1328125 4.6953125 C9.73826904 5.08984619 10.34372559 5.48437988 10.9675293 5.89086914 C38.41599873 24.25006608 56.86771614 51.58445566 63.33520508 83.91796875 C64.68881883 91.30365244 64.88845667 98.5129209 64.8828125 106.0078125 C64.88200684 107.11568115 64.88120117 108.2235498 64.88037109 109.36499023 C64.67173152 137.30019336 55.0560186 164.67240938 36.6953125 185.8828125 C36.07011719 186.64078125 35.44492187 187.39875 34.80078125 188.1796875 C29.70086833 194.20402456 23.95503709 199.09544567 17.6953125 203.8828125 C16.90382813 204.48996094 16.11234375 205.09710938 15.296875 205.72265625 C-10.12195851 224.34342964 -41.81520763 232.38513149 -72.9296875 227.6953125 C-91.25827498 224.5722128 -106.77520653 217.15887455 -123.3046875 208.8828125 C-124.07393555 208.49826904 -124.84318359 208.11372559 -125.63574219 207.7175293 C-126.46187012 207.30434448 -126.46187012 207.30434448 -127.3046875 206.8828125 C-126.3146875 206.8828125 -125.3246875 206.8828125 -124.3046875 206.8828125 C-124.56862251 203.45050802 -124.56862251 203.45050802 -125.3046875 199.8828125 C-126.2946875 199.2228125 -127.2846875 198.5628125 -128.3046875 197.8828125 C-123.27736957 198.42338432 -119.39128904 200.15680468 -114.9921875 202.5078125 C-84.68713703 218.11404844 -54.79966778 223.5705373 -21.578125 213.78515625 C-7.50436308 209.09919715 5.30726545 202.41158656 16.6953125 192.8828125 C17.20046387 192.46660645 17.70561523 192.05040039 18.22607422 191.62158203 C26.18668035 184.99730064 32.3290308 177.81069661 37.6953125 168.8828125 C38.04577637 168.30015625 38.39624023 167.7175 38.75732422 167.1171875 C55.01486001 139.53409311 58.93859761 107.57225762 51.109375 76.56201172 C44.14624519 51.16485536 27.83251045 27.02928848 4.74609375 13.76269531 C0.44191587 11.37843918 -3.91709054 9.10917749 -8.3046875 6.8828125 C-8.3046875 4.8828125 -8.3046875 4.8828125 -5.6171875 2.1953125 C-3.58248014 0.32884968 -2.79585774 -0.14216226 0 0 Z " fill="#EE5F6F" transform="translate(278.3046875,177.1171875)"/>
<path d="M0 0 C0.33 0 0.66 0 1 0 C1.33 2.64 1.66 5.28 2 8 C2.2475 7.195625 2.495 6.39125 2.75 5.5625 C3.1625 4.716875 3.575 3.87125 4 3 C6.078125 2.33984375 6.078125 2.33984375 8 2 C14.05940594 15.9429237 14.05940594 15.9429237 12 22 C11.33614902 23.2214858 10.64749979 24.42974856 9.9375 25.625 C8.04754211 28.91718472 7.55400973 30.32058026 8 34 C8.99 34 9.98 34 11 34 C12.32 31.36 13.64 28.72 15 26 C15.99 26.33 16.98 26.66 18 27 C19.12037996 29.50100565 19.90868838 32.04296588 20.7421875 34.65234375 C21.83465679 37.23392306 21.83465679 37.23392306 24.6328125 38.31640625 C25.80457031 38.65478516 25.80457031 38.65478516 27 39 C25.67265293 33.08056835 23.78801559 27.74430217 21.375 22.1875 C20.73207994 20.70393646 20.09384432 19.21833163 19.4609375 17.73046875 C19.18040527 17.08489014 18.89987305 16.43931152 18.61083984 15.77416992 C18 14 18 14 18 11 C18.83144531 10.66226562 19.66289062 10.32453125 20.51953125 9.9765625 C21.60621094 9.53054688 22.69289062 9.08453125 23.8125 8.625 C24.89144531 8.18414062 25.97039062 7.74328125 27.08203125 7.2890625 C30.8266028 5.6348341 32.70811678 4.43782482 35 1 C36.86328125 1.6328125 36.86328125 1.6328125 39 3 C40.23046875 5.6796875 40.23046875 5.6796875 41.1875 8.875 C41.51105469 9.92429687 41.83460938 10.97359375 42.16796875 12.0546875 C42.82005101 14.36299747 43.44222682 16.66749396 44 19 C44.66 19 45.32 19 46 19 C46.87639767 22.01939068 47.12399686 24.701504 47.11694336 27.84106445 C47.11584816 29.27824577 47.11584816 29.27824577 47.11473083 30.74446106 C47.07986398 35.11393421 47.03852276 39.48309647 46.9777832 43.85229492 C46.95099156 46.15361584 46.93660904 48.45511564 46.93481445 50.7565918 C46.93171271 54.0847669 46.88993091 57.41052017 46.83984375 60.73828125 C46.84580063 61.76141922 46.85175751 62.78455719 46.8578949 63.83869934 C46.71661553 69.83550463 45.86963631 73.28996865 41.67359924 77.6693573 C36.02110061 82.16353718 29.97683424 81.33131964 23.0625 81.3125 C21.88236328 81.32861328 20.70222656 81.34472656 19.48632812 81.36132812 C17.77799805 81.36229492 17.77799805 81.36229492 16.03515625 81.36328125 C14.47873413 81.36775269 14.47873413 81.36775269 12.89086914 81.37231445 C8.26144716 80.77609213 5.10046868 78.55611446 2.25 74.9375 C-0.9562284 70.7515907 -1.12585656 68.90316494 -1.12939453 63.67016602 C-1.13114685 63.02120361 -1.13289917 62.37224121 -1.13470459 61.70361328 C-1.1391136 59.55368391 -1.13618812 57.4038365 -1.1328125 55.25390625 C-1.13348589 53.76179488 -1.13445622 52.26968362 -1.13571167 50.77757263 C-1.13718742 47.64784706 -1.13503832 44.51815 -1.13037109 41.38842773 C-1.1246788 37.37556718 -1.1279504 33.36277359 -1.13394356 29.3499155 C-1.13755668 26.26758825 -1.13640703 23.18527687 -1.13381577 20.10294914 C-1.13314832 18.62336151 -1.13396855 17.14377243 -1.13629532 15.66418648 C-1.1388336 13.59582832 -1.13496442 11.52757859 -1.12939453 9.45922852 C-1.12859894 8.28167496 -1.12780334 7.1041214 -1.12698364 5.8908844 C-1 3 -1 3 0 0 Z " fill="#8361E5" transform="translate(162,269)"/>
<path d="M0 0 C3.37122651 1.10419883 6.18705715 2.76401697 9.1328125 4.6953125 C9.73826904 5.08984619 10.34372559 5.48437988 10.9675293 5.89086914 C38.41599873 24.25006608 56.86771614 51.58445566 63.33520508 83.91796875 C64.68881883 91.30365244 64.88845667 98.5129209 64.8828125 106.0078125 C64.88200684 107.11568115 64.88120117 108.2235498 64.88037109 109.36499023 C64.78316523 122.3800934 63.00791851 134.56108104 58.6953125 146.8828125 C58.3653125 146.8828125 58.0353125 146.8828125 57.6953125 146.8828125 C57.2003125 144.4078125 57.2003125 144.4078125 56.6953125 141.8828125 C54.7153125 142.2128125 52.7353125 142.5428125 50.6953125 142.8828125 C51.2436574 139.52885828 51.8241801 136.18406917 52.44921875 132.84375 C58.3461904 100.17037124 53.06600735 69.23781115 34.46875 41.5703125 C23.00560288 25.69203098 8.91366648 15.61979104 -8.3046875 6.8828125 C-8.3046875 4.8828125 -8.3046875 4.8828125 -5.6171875 2.1953125 C-3.58248014 0.32884968 -2.79585774 -0.14216226 0 0 Z " fill="#E58C66" transform="translate(278.3046875,177.1171875)"/>
<path d="M0 0 C1.38089233 1.62748024 2.70213607 3.30556653 4 5 C4.41636719 5.51949219 4.83273438 6.03898437 5.26171875 6.57421875 C6.53892294 8.39455296 7.33732752 9.8725399 8 12 C7.60620117 14.00976562 7.60620117 14.00976562 6.79296875 16.15625 C6.50462158 16.94547852 6.21627441 17.73470703 5.91918945 18.54785156 C5.61585693 19.35706055 5.31252441 20.16626953 5 21 C4.47066793 22.54486784 3.9471322 24.09173506 3.4296875 25.640625 C2.64680531 27.961733 1.86385082 30.28274053 1.07421875 32.6015625 C0.82027344 33.35695313 0.56632812 34.11234375 0.3046875 34.890625 C0.07765137 35.56125977 -0.14938477 36.23189453 -0.38330078 36.92285156 C-1.07737445 39.26061039 -1.55300466 41.6038546 -2 44 C-0.82812134 43.68192383 -0.82812134 43.68192383 0.36743164 43.35742188 C3.93008309 42.39589957 7.49618654 41.44784524 11.0625 40.5 C12.29162109 40.16613281 13.52074219 39.83226562 14.78710938 39.48828125 C15.98271484 39.17246094 17.17832031 38.85664063 18.41015625 38.53125 C19.50465088 38.23798828 20.59914551 37.94472656 21.72680664 37.64257812 C25.22587782 36.95565672 28.44303141 36.88976744 32 37 C32.82638376 39.89234315 33 41.88742431 33 45 C24.89563678 47.17488185 16.78921786 49.3417095 8.67837524 51.49229431 C4.97891047 52.47328979 1.28173878 53.46234268 -2.4140625 54.45703125 C-3.81748133 54.82638445 -5.22110095 55.19497633 -6.625 55.5625 C-7.79289062 55.87316406 -8.96078125 56.18382812 -10.1640625 56.50390625 C-12.90325735 56.9830767 -14.42093026 56.94985251 -17 56 C-18.28793994 52.41064212 -17.70555942 50.42521867 -16.33984375 46.921875 C-15.96077881 45.93251953 -15.58171387 44.94316406 -15.19116211 43.92382812 C-14.77745361 42.87646484 -14.36374512 41.82910156 -13.9375 40.75 C-13.10413075 38.58855551 -12.27079755 36.42709713 -11.4375 34.265625 C-11.02371094 33.20408203 -10.60992187 32.14253906 -10.18359375 31.04882812 C-8.56496075 26.8793791 -6.99828924 22.69136031 -5.4375 18.5 C-4.95736931 17.21862328 -4.47694009 15.93735834 -3.99609375 14.65625 C-3.66738281 13.7796875 -3.33867188 12.903125 -3 12 C-2.01 12 -1.02 12 0 12 C1.68798827 10.56249809 1.68798827 10.56249809 3 9 C2.34 8.34 1.68 7.68 1 7 C1.33 6.01 1.66 5.02 2 4 C1.34 4 0.68 4 0 4 C0 2.68 0 1.36 0 0 Z " fill="#5EB6EA" transform="translate(121,339)"/>
<path d="M0 0 C0.33 0 0.66 0 1 0 C0.85711146 1.70858216 0.71053911 3.4168564 0.5625 5.125 C0.48128906 6.07632812 0.40007812 7.02765625 0.31640625 8.0078125 C0 11 0 11 -0.51953125 13.625 C-3.57788643 35.10808031 -0.16670827 56.98646427 8.64453125 76.71875 C10.04401645 80.1065528 10.26499634 82.37838336 10 86 C10.66 86 11.32 86 12 86 C12 86.99 12 87.98 12 89 C12.66 89.66 13.32 90.32 14 91 C11.375 94.875 11.375 94.875 8 96 C8 95.34 8 94.68 8 94 C7.34 94 6.68 94 6 94 C-4.32340928 74.04482424 -11.18802292 55.62322098 -11.18530273 32.87426758 C-11.1875056 30.80724983 -11.20575459 28.74075294 -11.22460938 26.67382812 C-11.22654297 25.36478516 -11.22847656 24.05574219 -11.23046875 22.70703125 C-11.23457764 21.5156958 -11.23868652 20.32436035 -11.24291992 19.09692383 C-11.01116646 16.1423584 -10.54918071 14.48475231 -9 12 C-9 13.32 -9 14.64 -9 16 C-7.02 15.67 -5.04 15.34 -3 15 C-3 13.02 -3 11.04 -3 9 C-2.34 9 -1.68 9 -1 9 C-0.67 6.03 -0.34 3.06 0 0 Z " fill="#64C1E5" transform="translate(111,257)"/>
<path d="M0 0 C0.4127789 6.51600981 -0.73446317 10.88117023 -3.5 16.75 C-3.86383789 17.53858398 -4.22767578 18.32716797 -4.60253906 19.13964844 C-13.15791815 37.21740804 -28.3141368 57.43797014 -47 66 C-47.99 64.35 -48.98 62.7 -50 61 C-52.475 61.495 -52.475 61.495 -55 62 C-52.56620013 60.04865249 -50.12969831 58.10179683 -47.67578125 56.17578125 C-45.09628246 54.14202766 -42.54494234 52.07682156 -40 50 C-39.16855469 49.33097656 -38.33710938 48.66195312 -37.48046875 47.97265625 C-24.76442749 37.21909065 -14.91863697 21.52121278 -9.875 5.6875 C-8.3869439 1.21668858 -8.3869439 1.21668858 -4.875 -0.75 C-2 -1 -2 -1 0 0 Z " fill="#9044CA" transform="translate(336,319)"/>
<path d="M0 0 C3.37122651 1.10419883 6.18705715 2.76401697 9.1328125 4.6953125 C9.73826904 5.08984619 10.34372559 5.48437988 10.9675293 5.89086914 C22.33119226 13.49157441 39.18993728 25.11169558 42.6953125 38.8828125 C42.62152141 41.94268313 42.26103528 44.87698425 41.6953125 47.8828125 C39.984375 47.78515625 39.984375 47.78515625 37.6953125 46.8828125 C36.01640267 44.76502974 34.54123555 42.69867879 33.0703125 40.4453125 C22.35076123 24.80292923 8.34582455 15.33165532 -8.3046875 6.8828125 C-8.3046875 4.8828125 -8.3046875 4.8828125 -5.6171875 2.1953125 C-3.58248014 0.32884968 -2.79585774 -0.14216226 0 0 Z " fill="#F4B074" transform="translate(278.3046875,177.1171875)"/>
<path d="M0 0 C0.60592613 4.95155263 -1.51307017 8.23343097 -4 12.3125 C-4.3815625 12.95767578 -4.763125 13.60285156 -5.15625 14.26757812 C-6.09447618 15.85083481 -7.04594311 17.42623205 -8 19 C-5.83973606 18.50456757 -4.15577406 18.09457711 -2.25 16.9375 C1.18266365 15.50722348 4.30017984 15.87667266 8 16 C8 18.25 8 18.25 7 21 C2.68779018 24.12866774 -1.78097561 25.25335846 -7 26 C-6.72736328 26.63502441 -6.45472656 27.27004883 -6.17382812 27.92431641 C-4.93805804 30.8199264 -3.71892985 33.72226314 -2.5 36.625 C-1.85611328 38.12353516 -1.85611328 38.12353516 -1.19921875 39.65234375 C-0.79316406 40.62558594 -0.38710937 41.59882813 0.03125 42.6015625 C0.40830078 43.49182129 0.78535156 44.38208008 1.17382812 45.29931641 C2.09800744 48.32037773 2.1451835 50.85839044 2 54 C-0.25 54 -0.25 54 -3 53 C-5.31223573 49.60770678 -6.70797804 45.87606589 -8 42 C-8.66 41.67 -9.32 41.34 -10 41 C-10.28875 41.928125 -10.5775 42.85625 -10.875 43.8125 C-12 47 -12 47 -14 50 C-15.32 49.67 -16.64 49.34 -18 49 C-17.65822047 44.81320078 -17.19527167 42.02841312 -14.875 38.5 C-12.62100911 34.29255035 -12.82064996 32.54892159 -14 28 C-14.37125 27.154375 -14.7425 26.30875 -15.125 25.4375 C-16.29948604 22.16571747 -15.81738615 20.38173485 -15 17 C-13.7761409 14.51112061 -12.5376272 12.1845998 -11.125 9.8125 C-10.77308594 9.19697266 -10.42117187 8.58144531 -10.05859375 7.94726562 C-5.42627641 0 -5.42627641 0 0 0 Z " fill="#F5F3F8" transform="translate(187,254)"/>
<path d="M0 0 C2.3125 0.5 2.3125 0.5 5 2 C7.60249614 6.43237624 8.3833252 10.88899731 8 16 C6 16 6 16 4.375 14.5 C3.92125 14.005 3.4675 13.51 3 13 C2.01 14.485 2.01 14.485 1 16 C1 14.68 1 13.36 1 12 C0.01 12.33 -0.98 12.66 -2 13 C-2.33 12.67 -2.66 12.34 -3 12 C-4.67150538 16.22792536 -5.14570689 18.62548277 -4 23 C-3.8188926 24.37317256 -3.65323045 25.7484379 -3.5 27.125 C-3.13847675 30.90494214 -3.13847675 30.90494214 -2 34 C-1.34 33.34 -0.68 32.68 0 32 C0.28784952 35.0512049 0.41403468 37.95657628 0 41 C-2 43.1875 -2 43.1875 -5 44 C-7.77821875 43.64712141 -10.33751374 42.84566674 -13 42 C-13.825 41.855625 -14.65 41.71125 -15.5 41.5625 C-19.15104554 40.74101475 -22.51424918 39.35885201 -26 38 C-26 36.68 -26 35.36 -26 34 C-24.515 33.505 -24.515 33.505 -23 33 C-21.76722873 31.13977928 -21.76722873 31.13977928 -20.8125 28.9375 C-20.46832031 28.20402344 -20.12414062 27.47054688 -19.76953125 26.71484375 C-19.51558594 26.14894531 -19.26164063 25.58304687 -19 25 C-18.01 25.33 -17.02 25.66 -16 26 C-14.87962004 28.50100565 -14.09131162 31.04296588 -13.2578125 33.65234375 C-12.16534321 36.23392306 -12.16534321 36.23392306 -9.3671875 37.31640625 C-8.19542969 37.65478516 -8.19542969 37.65478516 -7 38 C-8.32734707 32.08056835 -10.21198441 26.74430217 -12.625 21.1875 C-13.26792006 19.70393646 -13.90615568 18.21833163 -14.5390625 16.73046875 C-14.81959473 16.08489014 -15.10012695 15.43931152 -15.38916016 14.77416992 C-16 13 -16 13 -16 10 C-15.16855469 9.66226562 -14.33710938 9.32453125 -13.48046875 8.9765625 C-12.39378906 8.53054688 -11.30710938 8.08453125 -10.1875 7.625 C-9.10855469 7.18414062 -8.02960938 6.74328125 -6.91796875 6.2890625 C-3.89269888 5.0520881 -3.89269888 5.0520881 -1 3 C-0.67 2.01 -0.34 1.02 0 0 Z " fill="#524282" transform="translate(196,270)"/>
<path d="M0 0 C1.32 0 2.64 0 4 0 C4.33 0.33 4.66 0.66 5 1 C5.99 0.67 6.98 0.34 8 0 C8.99 0 9.98 0 11 0 C11.33 2.31 11.66 4.62 12 7 C12.99 6.67 13.98 6.34 15 6 C15.38133299 7.9914056 15.71325582 9.99279077 16 12 C15.67 12.33 15.34 12.66 15 13 C17.91765 14.9451 19.62537285 15.45276317 23 16 C22.01 17.98 21.02 19.96 20 22 C20.99 22 21.98 22 23 22 C27 28.75 27 28.75 27 31 C27.99 31 28.98 31 30 31 C30.474375 32.11375 30.94875 33.2275 31.4375 34.375 C32.25306463 36.26710994 33.07856355 38.15712709 34 40 C34.804375 40.309375 35.60875 40.61875 36.4375 40.9375 C40.18049919 42.48947527 41.38994286 45.45787428 43 49 C43.36784131 50.3242287 43.71202981 51.65613912 44 53 C44.99 53 45.98 53 47 53 C47.33 53.99 47.66 54.98 48 56 C50.01508358 56.73323796 50.01508358 56.73323796 52 57 C52 57.66 52 58.32 52 59 C53.11375 58.649375 54.2275 58.29875 55.375 57.9375 C59 57 59 57 61 58 C61.33 57.01 61.66 56.02 62 55 C62.66 54.67 63.32 54.34 64 54 C64 53.34 64 52.68 64 52 C65.49609375 50.88671875 65.49609375 50.88671875 67.4375 49.6875 C70.41216759 47.64108226 70.41216759 47.64108226 72.0625 44.4375 C71.99009854 41.61384318 71.75263135 40.23062172 70 38 C67.44480079 37.18828772 67.44480079 37.18828772 65 37 C65.33 35.35 65.66 33.7 66 32 C65.01 31.34 64.02 30.68 63 30 C63.495 28.515 63.495 28.515 64 27 C65.29477062 28.26767077 66.58570339 29.53926224 67.875 30.8125 C68.95394531 31.87404297 68.95394531 31.87404297 70.0546875 32.95703125 C72.89809612 35.94318126 73.95139849 37.52208516 74.375 41.6875 C74.20927857 47.68661587 71.80766159 52.28272149 67.5 56.375 C61.5915777 60.21547449 57.01946367 60.66951665 50 60 C38.91732783 55.42237454 30.14191573 40.66343593 23.0625 31.1875 C22.56927246 30.52838623 22.07604492 29.86927246 21.56787109 29.19018555 C18.91873546 25.63151048 16.31577634 22.04502975 13.75 18.42578125 C13.21624756 17.68497314 12.68249512 16.94416504 12.13256836 16.1809082 C11.1065392 14.7556993 10.09366442 13.32090256 9.09594727 11.87573242 C7.57128105 9.69396837 7.57128105 9.69396837 5 7 C2.26108453 6.41126431 2.26108453 6.41126431 0 7 C0 4.69 0 2.38 0 0 Z " fill="#E15CAD" transform="translate(208,289)"/>
<path d="M0 0 C2.79777421 17.13636701 0.71231981 34.67908625 -5 51 C-5.33 51 -5.66 51 -6 51 C-6.33 49.35 -6.66 47.7 -7 46 C-9.97 46.495 -9.97 46.495 -13 47 C-12.55890203 44.33644685 -12.1178076 41.67309174 -11.65234375 39.01367188 C-9.61095333 27.33476981 -8.41052357 15.84855972 -8 4 C-6.68 4.33 -5.36 4.66 -4 5 C-4 4.34 -4 3.68 -4 3 C-1.34615385 0 -1.34615385 0 0 0 Z " fill="#F36A84" transform="translate(342,273)"/>
<path d="M0 0 C0.33 0 0.66 0 1 0 C0.85711146 1.70858216 0.71053911 3.4168564 0.5625 5.125 C0.48128906 6.07632812 0.40007812 7.02765625 0.31640625 8.0078125 C0.11083025 9.95190155 -0.15888004 11.89063963 -0.50219727 13.81518555 C-0.98325564 16.89287388 -1.18669753 19.83778862 -1.28125 22.94921875 C-1.31863281 24.04427734 -1.35601562 25.13933594 -1.39453125 26.26757812 C-1.46520481 28.55923369 -1.53551364 30.85090052 -1.60546875 33.14257812 C-1.64285156 34.23376953 -1.68023437 35.32496094 -1.71875 36.44921875 C-1.76418945 37.93941528 -1.76418945 37.93941528 -1.81054688 39.4597168 C-2 42 -2 42 -3 45 C-3.06665376 46.39439664 -3.08538199 47.79169875 -3.0625 49.1875 C-3.041875 50.445625 -3.02125 51.70375 -3 53 C-3.61875 52.79375 -4.2375 52.5875 -4.875 52.375 C-5.926875 52.189375 -5.926875 52.189375 -7 52 C-7.66 52.66 -8.32 53.32 -9 54 C-12.71330827 50.28669173 -11.16378268 39.8419776 -11.18554688 34.91601562 C-11.18546631 34.24223877 -11.18538574 33.56846191 -11.18530273 32.87426758 C-11.1875056 30.80724983 -11.20575459 28.74075294 -11.22460938 26.67382812 C-11.22654297 25.36478516 -11.22847656 24.05574219 -11.23046875 22.70703125 C-11.23457764 21.5156958 -11.23868652 20.32436035 -11.24291992 19.09692383 C-11.01116646 16.1423584 -10.54918071 14.48475231 -9 12 C-9 13.32 -9 14.64 -9 16 C-7.02 15.67 -5.04 15.34 -3 15 C-3 13.02 -3 11.04 -3 9 C-2.34 9 -1.68 9 -1 9 C-0.67 6.03 -0.34 3.06 0 0 Z " fill="#65D7E8" transform="translate(111,257)"/>
<path d="M0 0 C0.33 0 0.66 0 1 0 C1.33 2.64 1.66 5.28 2 8 C2.2475 7.195625 2.495 6.39125 2.75 5.5625 C3.1625 4.716875 3.575 3.87125 4 3 C6.078125 2.33984375 6.078125 2.33984375 8 2 C14.05940594 15.9429237 14.05940594 15.9429237 12 22 C10.99736884 23.7726519 9.93863788 25.49818843 8.85546875 27.22265625 C7.46346947 30.11470955 7.74452739 32.87046056 8 36 C7.01 36 6.02 36 5 36 C4.83252588 33.54171921 4.6659856 31.08338135 4.5 28.625 C4.45230469 27.92632812 4.40460938 27.22765625 4.35546875 26.5078125 C4 21.2265625 4 21.2265625 4 19 C3.690625 20.093125 3.38125 21.18625 3.0625 22.3125 C2.41662103 24.55407994 1.7376883 26.7869351 1 29 C0.84565842 31.94717173 0.7424397 34.87498865 0.68359375 37.82421875 C0.66281265 38.68561966 0.64203156 39.54702057 0.62062073 40.43452454 C0.55525091 43.18543544 0.49629868 45.93644156 0.4375 48.6875 C0.39430283 50.55274421 0.35068815 52.4179788 0.30664062 54.28320312 C0.19958237 58.85537124 0.09827946 63.4276351 0 68 C-0.33 68 -0.66 68 -1 68 C-1.02315879 59.57686812 -1.04093317 51.15374952 -1.05181217 42.73059368 C-1.05703324 38.81948917 -1.06411685 34.90840643 -1.07543945 30.99731445 C-1.08629584 27.22369485 -1.09228269 23.45009619 -1.09487724 19.67646217 C-1.09672652 18.23594648 -1.10033762 16.79543194 -1.10573006 15.35492516 C-1.11297686 13.3390858 -1.11340837 11.32322542 -1.11352539 9.30737305 C-1.115746 8.15931686 -1.11796661 7.01126068 -1.12025452 5.82841492 C-1 3 -1 3 0 0 Z " fill="#B391DA" transform="translate(162,269)"/>
<path d="M0 0 C1.98906119 3.85276137 3.14561788 6.55865462 3 11 C-2.81344239 20.29810815 -13.3381604 28.06172643 -23 33 C-23.99 31.35 -24.98 29.7 -26 28 C-27.65 28.33 -29.3 28.66 -31 29 C-28.56620013 27.04865249 -26.12969831 25.10179683 -23.67578125 23.17578125 C-14.85154874 16.2184938 -6.3057438 9.40734948 0 0 Z " fill="#8941CA" transform="translate(312,352)"/>
<path d="M0 0 C0.82638376 2.89234315 1 4.88742431 1 8 C-3.19750239 9.14574294 -7.39672665 10.28487398 -11.59765625 11.41796875 C-13.02587977 11.80418527 -14.45362104 12.1921898 -15.88085938 12.58203125 C-17.93494847 13.14275752 -19.99069811 13.69698571 -22.046875 14.25 C-23.28276367 14.58515625 -24.51865234 14.9203125 -25.79199219 15.265625 C-29 16 -29 16 -33 16 C-32.34 13.36 -31.68 10.72 -31 8 C-31.66 7.67 -32.32 7.34 -33 7 C-28.81649136 5.81868955 -24.62762775 4.65759263 -20.4375 3.5 C-18.66536133 2.99919922 -18.66536133 2.99919922 -16.85742188 2.48828125 C-11.10882401 0.91023478 -5.97428367 -0.49127737 0 0 Z " fill="#9560DB" transform="translate(153,376)"/>
<path d="M0 0 C1.07185547 -0.01611328 2.14371094 -0.03222656 3.24804688 -0.04882812 C8.90307953 -0.05232969 13.2399506 0.00290728 18.0625 3.3125 C22.20179971 7.89929157 23.1900891 10.319125 23.125 16.4375 C23.11597656 17.53320312 23.10695312 18.62890625 23.09765625 19.7578125 C23.08605469 20.60085937 23.07445312 21.44390625 23.0625 22.3125 C22.7325 22.3125 22.4025 22.3125 22.0625 22.3125 C21.7325 18.0225 21.4025 13.7325 21.0625 9.3125 C18.5875 8.8175 18.5875 8.8175 16.0625 8.3125 C15.4025 7.3225 14.7425 6.3325 14.0625 5.3125 C8.62226365 3.46835209 4.77060588 3.03108848 -0.9375 4.3125 C-1.2675 4.6425 -1.5975 4.9725 -1.9375 5.3125 C-3.35476718 5.30664352 -4.7719657 5.25780799 -6.1875 5.1875 C-10.28727438 5.1614283 -12.79127424 5.45229476 -15.9375 8.3125 C-17.29730881 11.38811246 -17.29730881 11.38811246 -17.9375 14.3125 C-18.9275 14.3125 -19.9175 14.3125 -20.9375 14.3125 C-21.94524078 23.52807302 -22.24662951 32.74111823 -22.5 42 C-22.54331078 43.49154546 -22.58692848 44.98308205 -22.63085938 46.47460938 C-22.73660473 50.08714429 -22.83821966 53.69978094 -22.9375 57.3125 C-23.2675 57.3125 -23.5975 57.3125 -23.9375 57.3125 C-24.11570101 50.76587854 -24.23786907 44.21988723 -24.32202148 37.67138672 C-24.35711833 35.44621408 -24.40480943 33.22120165 -24.46557617 30.99658203 C-24.55096857 27.78898525 -24.5902967 24.58353015 -24.62109375 21.375 C-24.65722275 20.38822266 -24.69335175 19.40144531 -24.73057556 18.38476562 C-24.73356088 13.07509997 -24.15022566 9.89697904 -20.70727539 5.74609375 C-14.44458815 -0.46729311 -8.40745916 -0.02518712 0 0 Z " fill="#F3BE95" transform="translate(184.9375,214.6875)"/>
<path d="M0 0 C1.32 1.32 2.64 2.64 4 4 C1.08235 5.9451 -0.62537285 6.45276317 -4 7 C-4.33 7.99 -4.66 8.98 -5 10 C-5.66 10 -6.32 10 -7 10 C-7.33 10.99 -7.66 11.98 -8 13 C-9.55050367 16.81232089 -11.98833905 19.28799041 -14.875 22.1875 C-15.73867187 23.06792969 -16.60234375 23.94835937 -17.4921875 24.85546875 C-21.03141185 27.88200173 -21.03141185 27.88200173 -24 28 C-24.99 27.34 -25.98 26.68 -27 26 C-26.76510641 20.50763525 -25.59982946 17.91609272 -21.79296875 14.21679688 C-21.24253906 13.71212891 -20.69210938 13.20746094 -20.125 12.6875 C-19.58230469 12.16349609 -19.03960937 11.63949219 -18.48046875 11.09960938 C-16.0914178 8.81862064 -13.75306748 6.83537832 -11 5 C-8.3125 5.375 -8.3125 5.375 -6 6 C-6 5.01 -6 4.02 -6 3 C-4.02 2.01 -2.04 1.02 0 0 Z " fill="#5DF0E5" transform="translate(157,184)"/>
<path d="M0 0 C1.32 0 2.64 0 4 0 C3.814375 0.556875 3.62875 1.11375 3.4375 1.6875 C2.92371876 4.40320082 3.44901578 6.3139519 4 9 C3.67 9.99 3.34 10.98 3 12 C0.17216424 8.80331609 -0.63139654 6.23893982 -1 2 C-0.67 1.34 -0.34 0.68 0 0 Z M-11 11 C-10.01 11.33 -9.02 11.66 -8 12 C-6.87962004 14.50100565 -6.09131162 17.04296588 -5.2578125 19.65234375 C-3.98827917 22.62627396 -3.98827917 22.62627396 1 24 C1.33 20.04 1.66 16.08 2 12 C4.46278801 14.46278801 4.99771255 16.70676982 6 20 C6.66 19.34 7.32 18.68 8 18 C8.28784952 21.0512049 8.41403468 23.95657628 8 27 C6 29.1875 6 29.1875 3 30 C0.22178125 29.64712141 -2.33751374 28.84566674 -5 28 C-6.2375 27.7834375 -6.2375 27.7834375 -7.5 27.5625 C-11.15104554 26.74101475 -14.51424918 25.35885201 -18 24 C-18 22.68 -18 21.36 -18 20 C-17.01 19.67 -16.02 19.34 -15 19 C-13.76722873 17.13977928 -13.76722873 17.13977928 -12.8125 14.9375 C-12.46832031 14.20402344 -12.12414062 13.47054688 -11.76953125 12.71484375 C-11.51558594 12.14894531 -11.26164063 11.58304687 -11 11 Z " fill="#4B4BAA" transform="translate(188,284)"/>
<path d="M0 0 C2.0625 1.75 2.0625 1.75 4 4 C3.83764648 5.99975586 3.83764648 5.99975586 3 8 C1.48461914 9.23266602 1.48461914 9.23266602 -0.46484375 10.25390625 C-1.17842041 10.63232666 -1.89199707 11.01074707 -2.62719727 11.40063477 C-3.38959717 11.78405029 -4.15199707 12.16746582 -4.9375 12.5625 C-5.70570068 12.95945068 -6.47390137 13.35640137 -7.26538086 13.76538086 C-12.67605108 16.49832433 -18.04878545 18.72787306 -24 20 C-24.33 17.69 -24.66 15.38 -25 13 C-25.99 12.67 -26.98 12.34 -28 12 C-27.44014404 11.76812988 -26.88028809 11.53625977 -26.3034668 11.29736328 C-23.76342806 10.24320638 -21.22545579 9.18416133 -18.6875 8.125 C-17.80642578 7.76019531 -16.92535156 7.39539063 -16.01757812 7.01953125 C-15.17001953 6.66503906 -14.32246094 6.31054688 -13.44921875 5.9453125 C-12.66893311 5.62062988 -11.88864746 5.29594727 -11.0847168 4.96142578 C-8.77267022 3.96057995 -8.77267022 3.96057995 -6 2 C-4.01200182 1.29835358 -2.01301483 0.62627128 0 0 Z " fill="#E04E73" transform="translate(285,379)"/>
<path d="M0 0 C5.25832214 0.55522656 9.14682823 2.33377574 13.75 4.75 C14.44867188 5.10835938 15.14734375 5.46671875 15.8671875 5.8359375 C17.26391245 6.55233886 18.65913427 7.27167938 20.05273438 7.99414062 C22.68877808 9.35578808 25.34328358 10.67923241 28 12 C29.33333333 12.66666667 30.66666667 13.33333333 32 14 C31.67 15.65 31.34 17.3 31 19 C30.34 18.67 29.68 18.34 29 18 C28.01 18.33 27.02 18.66 26 19 C18.17682184 17.88240312 11.92564358 14.68833117 5 11 C3.66888147 10.328922 2.33649278 9.66030997 1 9 C1.99 9 2.98 9 4 9 C3.73606499 5.56769552 3.73606499 5.56769552 3 2 C2.01 1.34 1.02 0.68 0 0 Z " fill="#FA678A" transform="translate(150,375)"/>
<path d="M0 0 C1.40668945 0.00966797 1.40668945 0.00966797 2.84179688 0.01953125 C4.30649414 0.04466797 4.30649414 0.04466797 5.80078125 0.0703125 C6.78884766 0.07933594 7.77691406 0.08835938 8.79492188 0.09765625 C11.2346189 0.1212282 13.67382822 0.15413228 16.11328125 0.1953125 C15.92765625 0.9790625 15.74203125 1.7628125 15.55078125 2.5703125 C14.85365859 5.16621025 14.85365859 5.16621025 16.11328125 7.1953125 C18.75328125 7.1953125 21.39328125 7.1953125 24.11328125 7.1953125 C24.11328125 7.5253125 24.11328125 7.8553125 24.11328125 8.1953125 C23.45432861 8.22036865 22.79537598 8.2454248 22.11645508 8.27124023 C4.59642449 8.92365515 4.59642449 8.92365515 -12.88671875 10.1953125 C-12.88671875 9.5353125 -12.88671875 8.8753125 -12.88671875 8.1953125 C-13.87671875 7.8653125 -14.86671875 7.5353125 -15.88671875 7.1953125 C-14.23671875 6.5353125 -12.58671875 5.8753125 -10.88671875 5.1953125 C-10.88671875 4.5353125 -10.88671875 3.8753125 -10.88671875 3.1953125 C-9.89671875 2.8653125 -8.90671875 2.5353125 -7.88671875 2.1953125 C-4.63281887 0.02604591 -3.75275918 -0.04548799 0 0 Z " fill="#64F2E4" transform="translate(209.88671875,163.8046875)"/>
<path d="M0 0 C8.58 2.31 17.16 4.62 26 7 C24.68 7.99 23.36 8.98 22 10 C20.98198643 10.98165594 19.9753197 11.97591432 19 13 C19.66 13.33 20.32 13.66 21 14 C15.63830822 14.2506765 11.1734064 13.43138222 6.125 11.75 C5.42826172 11.52546143 4.73152344 11.30092285 4.01367188 11.06958008 C-1.15705495 9.36865145 -6.09343518 7.36566518 -11 5 C-11 4.67 -11 4.34 -11 4 C-8.69 4 -6.38 4 -4 4 C-3.67 3.34 -3.34 2.68 -3 2 C-2.34 2.33 -1.68 2.66 -1 3 C-0.67 2.01 -0.34 1.02 0 0 Z " fill="#EE677A" transform="translate(182,389)"/>
<path d="M0 0 C0.33 0 0.66 0 1 0 C1.15263112 6.28019934 1.25741479 12.55991737 1.32958984 18.84155273 C1.35968916 20.97650018 1.40057913 23.11132471 1.45263672 25.24584961 C1.52575323 28.32176079 1.55952521 31.39603203 1.5859375 34.47265625 C1.61690521 35.42084732 1.64787292 36.36903839 1.67977905 37.34596252 C1.68272156 43.19223654 0.74099122 46.37370807 -3.31747437 50.64353943 C-7.18481562 53.76140926 -10.15360041 54.24359215 -15.078125 54.1953125 C-16.81835938 54.18564453 -16.81835938 54.18564453 -18.59375 54.17578125 C-19.8003125 54.15902344 -21.006875 54.14226562 -22.25 54.125 C-24.08304688 54.11146484 -24.08304688 54.11146484 -25.953125 54.09765625 C-28.96894782 54.07409513 -31.98437492 54.04119706 -35 54 C-35 52.68 -35 51.36 -35 50 C-33.35 50 -31.7 50 -30 50 C-30 50.66 -30 51.32 -30 52 C-27.79072956 51.7155186 -25.58261021 51.4220904 -23.375 51.125 C-22.14523438 50.96257812 -20.91546875 50.80015625 -19.6484375 50.6328125 C-13.20300248 49.65885552 -13.20300248 49.65885552 -8.25 45.875 C-7.8375 45.25625 -7.425 44.6375 -7 44 C-6.34 44 -5.68 44 -5 44 C-5 43.01 -5 42.02 -5 41 C-2.525 40.505 -2.525 40.505 0 40 C-0.10828125 38.88818359 -0.10828125 38.88818359 -0.21875 37.75390625 C-1.32866161 25.15949253 -1.59533288 12.56324645 0 0 Z " fill="#A257DF" transform="translate(207,296)"/>
<path d="M0 0 C3.96580374 3.65435318 6.60380109 7.28588268 9.1875 12 C9.52974609 12.60328125 9.87199219 13.2065625 10.22460938 13.828125 C15 22.3589199 15 22.3589199 15 27 C12.1875 28.5625 12.1875 28.5625 9 30 C6 29 6 29 4.92504883 27.32592773 C4.60560303 26.61895752 4.28615723 25.9119873 3.95703125 25.18359375 C3.60576172 24.41982422 3.25449219 23.65605469 2.89257812 22.86914062 C2.53615234 22.06669922 2.17972656 21.26425781 1.8125 20.4375 C1.44447266 19.63119141 1.07644531 18.82488281 0.69726562 17.99414062 C-0.21124489 16.00013702 -1.10980336 14.00223042 -2 12 C-1.34 12 -0.68 12 0 12 C1.0812391 5.93949386 1.0812391 5.93949386 0 0 Z " fill="#EA9B6C" transform="translate(319,212)"/>
<path d="M0 0 C0.33 0 0.66 0 1 0 C1.0825 0.7425 1.165 1.485 1.25 2.25 C2.1396946 5.51221354 3.48503749 6.80954878 6 9 C7.15811388 6.05270463 7.15811388 6.05270463 7 3 C6.01 2.67 5.02 2.34 4 2 C5.65 1.67 7.3 1.34 9 1 C9.58934483 10.86606896 7.33983461 19.75122724 4 29 C3.67 29 3.34 29 3 29 C2.67 27.35 2.34 25.7 2 24 C0.02 24.33 -1.96 24.66 -4 25 C-3.86722656 24.21367187 -3.73445313 23.42734375 -3.59765625 22.6171875 C-2.85513863 18.12325732 -2.14562252 13.62445794 -1.4375 9.125 C-1.29892578 8.24585938 -1.16035156 7.36671875 -1.01757812 6.4609375 C-0.67815064 4.30732866 -0.33904301 2.15366941 0 0 Z " fill="#CD51A9" transform="translate(333,295)"/>
<path d="M0 0 C4.64358875 7.92141611 4.37150389 19.04262846 4 28 C3.67 28 3.34 28 3 28 C2.67 26.02 2.34 24.04 2 22 C1.01 22.33 0.02 22.66 -1 23 C-1 23.66 -1 24.32 -1 25 C-2.32 24.67 -3.64 24.34 -5 24 C-6.26361972 18.01314152 -7.32418477 12.08233706 -8 6 C-6.02 6 -4.04 6 -2 6 C-1.34 4.02 -0.68 2.04 0 0 Z " fill="#E97E6A" transform="translate(339,253)"/>
<path d="M0 0 C3.20404767 1.04602733 5.6612891 2.56932184 8.46875 4.4296875 C9.44457031 5.07035156 10.42039062 5.71101562 11.42578125 6.37109375 C12.16183594 6.86480469 12.89789063 7.35851562 13.65625 7.8671875 C12.66625 8.3621875 12.66625 8.3621875 11.65625 8.8671875 C11.016875 8.5371875 10.3775 8.2071875 9.71875 7.8671875 C7.5444255 6.51644478 7.5444255 6.51644478 4.65625 7.8671875 C4.98625 8.8571875 5.31625 9.8471875 5.65625 10.8671875 C6.31625 11.1971875 6.97625 11.5271875 7.65625 11.8671875 C7.65625 12.5271875 7.65625 13.1871875 7.65625 13.8671875 C8.460625 13.9909375 9.265 14.1146875 10.09375 14.2421875 C10.939375 14.4484375 11.785 14.6546875 12.65625 14.8671875 C12.98625 15.5271875 13.31625 16.1871875 13.65625 16.8671875 C15.68088255 17.51932042 15.68088255 17.51932042 17.65625 17.8671875 C17.32625 18.8571875 16.99625 19.8471875 16.65625 20.8671875 C17.64625 20.8671875 18.63625 20.8671875 19.65625 20.8671875 C21.84375 22.7421875 21.84375 22.7421875 23.65625 24.8671875 C23.65625 25.5271875 23.65625 26.1871875 23.65625 26.8671875 C24.31625 27.1971875 24.97625 27.5271875 25.65625 27.8671875 C21.68629844 27.8671875 21.07127862 26.61087013 18.28125 23.8671875 C10.45010236 16.59704313 1.2882075 11.39987338 -8.34375 6.8671875 C-8.34375 4.8671875 -8.34375 4.8671875 -5.65625 2.1796875 C-3.59960395 0.29310004 -2.82780822 -0.16024247 0 0 Z " fill="#EAB87C" transform="translate(278.34375,177.1328125)"/>
<path d="M0 0 C0.51137226 6.90352555 -1.13035626 11.74827614 -4 18 C-7.37462715 17.45276317 -9.08235 16.9451 -12 15 C-11.67 14.67 -11.34 14.34 -11 14 C-10.855625 12.948125 -10.71125 11.89625 -10.5625 10.8125 C-9.59731544 4.27069351 -9.59731544 4.27069351 -8 1 C-2.89361702 -1.44680851 -2.89361702 -1.44680851 0 0 Z " fill="#A94BCC" transform="translate(336,319)"/>
<path d="M0 0 C4.8645033 2.19776236 7.78010674 4.94391321 10.81640625 9.30859375 C10.81640625 9.96859375 10.81640625 10.62859375 10.81640625 11.30859375 C10.15640625 11.30859375 9.49640625 11.30859375 8.81640625 11.30859375 C8.81640625 10.64859375 8.81640625 9.98859375 8.81640625 9.30859375 C8.21828125 9.01984375 7.62015625 8.73109375 7.00390625 8.43359375 C4.81640625 7.30859375 4.81640625 7.30859375 1.81640625 5.30859375 C1.81640625 4.64859375 1.81640625 3.98859375 1.81640625 3.30859375 C-4.89466573 2.98092839 -10.34608717 2.73461013 -16.18359375 6.30859375 C-17.54722583 8.28805967 -18.87778019 10.29051825 -20.18359375 12.30859375 C-22.73288723 14.48313616 -25.41974938 16.41683619 -28.18359375 18.30859375 C-28.84359375 17.97859375 -29.50359375 17.64859375 -30.18359375 17.30859375 C-11.50914478 -3.64421937 -11.50914478 -3.64421937 0 0 Z " fill="#DFAC8F" transform="translate(270.18359375,214.69140625)"/>
<path d="M0 0 C0.99 -0.33 1.98 -0.66 3 -1 C3.33 -0.01 3.66 0.98 4 2 C-0.41404428 6.08915269 -4.4341272 9.63450406 -10 12 C-10.99 10.35 -11.98 8.7 -13 7 C-14.65 7.33 -16.3 7.66 -18 8 C-16.33333333 6.66666667 -14.66666667 5.33333333 -13 4 C-12.154375 3.278125 -11.30875 2.55625 -10.4375 1.8125 C-6.55331169 -1.07574259 -4.54008643 -1.17163521 0 0 Z " fill="#9444BD" transform="translate(299,373)"/>
<path d="M0 0 C-0.66 0.33 -1.32 0.66 -2 1 C-2.33 1.66 -2.66 2.32 -3 3 C-3.99 2.67 -4.98 2.34 -6 2 C-5.67 2.99 -5.34 3.98 -5 5 C-6.65 5.33 -8.3 5.66 -10 6 C-9.34 6.33 -8.68 6.66 -8 7 C-8 7.66 -8 8.32 -8 9 C-7.34 9.33 -6.68 9.66 -6 10 C-9.3 10.66 -12.6 11.32 -16 12 C-16.66 11.01 -17.32 10.02 -18 9 C-17.34 8.67 -16.68 8.34 -16 8 C-14.86649466 5.98330173 -14.86649466 5.98330173 -14 4 C-18.41522109 5.26974972 -18.41522109 5.26974972 -22 8 C-24.6015625 8.4140625 -24.6015625 8.4140625 -27.625 8.625 C-28.62789062 8.69976562 -29.63078125 8.77453125 -30.6640625 8.8515625 C-31.82035156 8.92503906 -31.82035156 8.92503906 -33 9 C-25.15236704 3.76824469 -9.42330911 -3.29928808 0 0 Z " fill="#61E5DA" transform="translate(205,165)"/>
<path d="M0 0 C3.67942296 1.22647432 3.92940482 2.16331485 5.6875 5.5 C6.12449219 6.3146875 6.56148437 7.129375 7.01171875 7.96875 C8 10 8 10 8 11 C7.35933594 11.18175781 6.71867188 11.36351562 6.05859375 11.55078125 C0.85604103 13.06270045 -4.07144327 14.75000671 -9 17 C-7.46933687 11.18348012 -4.32262613 4.32262613 0 0 Z " fill="#B65D76" transform="translate(187,258)"/>
<path d="M0 0 C4.20796686 -0.14570522 8.41528166 -0.23421087 12.625 -0.3125 C13.81480469 -0.35439453 15.00460938 -0.39628906 16.23046875 -0.43945312 C26.12337154 -0.57762216 26.12337154 -0.57762216 29.7109375 2.26953125 C33.53508161 6.83109565 34.25521949 9.25990328 34.125 15.25 C34.10695312 16.32765625 34.08890625 17.4053125 34.0703125 18.515625 C34.04710937 19.33546875 34.02390625 20.1553125 34 21 C33.67 21 33.34 21 33 21 C32.67 16.71 32.34 12.42 32 8 C29.525 7.505 29.525 7.505 27 7 C26.34 6.01 25.68 5.02 25 4 C19.55976365 2.15585209 15.70810588 1.71858848 10 3 C9.67 3.33 9.34 3.66 9 4 C3.61120543 4.46859083 3.61120543 4.46859083 1.125 2.5625 C0 1 0 1 0 0 Z " fill="#F7D492" transform="translate(174,216)"/>
<path d="M0 0 C1.32 0 2.64 0 4 0 C4.33 0.33 4.66 0.66 5 1 C5.99 0.67 6.98 0.34 8 0 C8.99 0 9.98 0 11 0 C11.33 2.31 11.66 4.62 12 7 C12.99 6.67 13.98 6.34 15 6 C15.33 7.98 15.66 9.96 16 12 C15.360625 12.12375 14.72125 12.2475 14.0625 12.375 C13.381875 12.58125 12.70125 12.7875 12 13 C11.67 13.66 11.34 14.32 11 15 C10.62488281 14.4225 10.24976563 13.845 9.86328125 13.25 C9.35152344 12.5075 8.83976563 11.765 8.3125 11 C7.81363281 10.2575 7.31476563 9.515 6.80078125 8.75 C5.09180001 6.72271613 5.09180001 6.72271613 2.29296875 6.75 C1.15794922 6.87375 1.15794922 6.87375 0 7 C0 4.69 0 2.38 0 0 Z " fill="#D65D9D" transform="translate(208,289)"/>
<path d="M0 0 C0.19785783 3.56144099 0.11103658 6.04454879 -2 9 C-4.94698341 10.00171585 -7.65544329 10.10800819 -10.75 10.0625 C-11.54921875 10.05347656 -12.3484375 10.04445313 -13.171875 10.03515625 C-13.77515625 10.02355469 -14.3784375 10.01195312 -15 10 C-14.67 9.01 -14.34 8.02 -14 7 C-13.01 7 -12.02 7 -11 7 C-10.5978125 5.2984375 -10.5978125 5.2984375 -10.1875 3.5625 C-9.795625 2.386875 -9.40375 1.21125 -9 0 C-5.52176885 -1.15941038 -3.54104422 -0.70820884 0 0 Z " fill="#6E99FC" transform="translate(122,384)"/>
<path d="M0 0 C6.02770138 0.47587116 10.76678289 3.19722957 16 6 C15.34 7.65 14.68 9.3 14 11 C14.66 11 15.32 11 16 11 C16 11.66 16 12.32 16 13 C10.72684667 12.5547115 5.98229776 11.91626837 1 10 C1.99 9.67 2.98 9.34 4 9 C3.73606499 5.56769552 3.73606499 5.56769552 3 2 C2.01 1.34 1.02 0.68 0 0 Z " fill="#E1589C" transform="translate(150,375)"/>
<path d="M0 0 C0.4912621 4.72839767 -1.04967849 7.33072754 -3.5 11.3125 C-4.1496875 12.38113281 -4.799375 13.44976562 -5.46875 14.55078125 C-6.22671875 15.76314453 -6.22671875 15.76314453 -7 17 C-7.66 15.68 -8.32 14.36 -9 13 C-10.65 14.98 -12.3 16.96 -14 19 C-14.33 18.34 -14.66 17.68 -15 17 C-13.82477293 14.60502969 -12.60294152 12.3536972 -11.25 10.0625 C-10.8890625 9.42892578 -10.528125 8.79535156 -10.15625 8.14257812 C-5.4299586 0 -5.4299586 0 0 0 Z " fill="#FAEFEB" transform="translate(187,254)"/>
<path d="M0 0 C0.33 1.32 0.66 2.64 1 4 C0.05125 4.20625 -0.8975 4.4125 -1.875 4.625 C-5.29166667 5.70833333 -5.29166667 5.70833333 -6.375 9.125 C-6.58125 10.07375 -6.7875 11.0225 -7 12 C-7.99 12 -8.98 12 -10 12 C-10 12.66 -10 13.32 -10 14 C-8.68 14.66 -7.36 15.32 -6 16 C-9.375 16.625 -9.375 16.625 -13 17 C-13.66 16.34 -14.32 15.68 -15 15 C-14.84114718 11.34638504 -14.39140907 9.47979177 -12.0625 6.625 C-10 5 -10 5 -8 5 C-7.79375 4.360625 -7.5875 3.72125 -7.375 3.0625 C-6 1 -6 1 -2.875 0.25 C-1.92625 0.1675 -0.9775 0.085 0 0 Z " fill="#69A4F7" transform="translate(118,379)"/>
<path d="M0 0 C10.70497215 8.75041263 10.70497215 8.75041263 11.5 14.8125 C11.16886367 20.85288336 8.67698675 25.47546659 4.25 29.5 C3.5075 29.995 2.765 30.49 2 31 C1.4465236 28.92446352 1 27.15634036 1 25 C2.49609375 23.88671875 2.49609375 23.88671875 4.4375 22.6875 C7.41216759 20.64108226 7.41216759 20.64108226 9.0625 17.4375 C8.99009854 14.61384318 8.75263135 13.23062172 7 11 C4.44480079 10.18828772 4.44480079 10.18828772 2 10 C2.33 8.35 2.66 6.7 3 5 C2.01 4.34 1.02 3.68 0 3 C0 2.01 0 1.02 0 0 Z " fill="#E55E98" transform="translate(271,316)"/>
<path d="M0 0 C0.66 0 1.32 0 2 0 C3.23921302 2.97411124 4.30058404 5.85262818 5 9 C5.66 9 6.32 9 7 9 C7 9.99 7 10.98 7 12 C7.66 12.66 8.32 13.32 9 14 C6.375 17.875 6.375 17.875 3 19 C3 18.34 3 17.68 3 17 C2.34 17 1.68 17 1 17 C-1.42857143 10.71428571 -1.42857143 10.71428571 0 7 C-0.99 6.34 -1.98 5.68 -3 5 C-1.625 2.5 -1.625 2.5 0 0 Z " fill="#64C2F5" transform="translate(116,334)"/>
<path d="M0 0 C2.3125 0.5 2.3125 0.5 5 2 C7.60249614 6.43237624 8.3833252 10.88899731 8 16 C6 16 6 16 4.375 14.5 C3.92125 14.005 3.4675 13.51 3 13 C2.01 14.485 2.01 14.485 1 16 C1 14.68 1 13.36 1 12 C0.01 12.33 -0.98 12.66 -2 13 C-2.19294408 8.17639811 -1.75747614 4.50353262 0 0 Z " fill="#BB5797" transform="translate(196,270)"/>
<path d="M0 0 C4 4.625 4 4.625 4 8 C4.99 8.33 5.98 8.66 7 9 C6.67 9.99 6.34 10.98 6 12 C6.66 12 7.32 12 8 12 C8.33 13.32 8.66 14.64 9 16 C7.02 16.66 5.04 17.32 3 18 C1.99267601 16.06629769 0.99436712 14.12789694 0 12.1875 C-0.556875 11.10855469 -1.11375 10.02960938 -1.6875 8.91796875 C-3 6 -3 6 -3 3 C-2.01 3 -1.02 3 0 3 C0 2.01 0 1.02 0 0 Z " fill="#F49D6D" transform="translate(323,224)"/>
<path d="M0 0 C0.82638376 2.89234315 1 4.88742431 1 8 C-6.42857143 10.42857143 -6.42857143 10.42857143 -10 9 C-9.67 7.68 -9.34 6.36 -9 5 C-10.98 4.34 -12.96 3.68 -15 3 C-9.84335444 0.23751131 -5.87094034 -0.1129027 0 0 Z " fill="#AB5CD6" transform="translate(153,376)"/>
<path d="M0 0 C0.33 0 0.66 0 1 0 C1.0825 0.7425 1.165 1.485 1.25 2.25 C2.1396946 5.51221354 3.48503749 6.80954878 6 9 C7.15811388 6.05270463 7.15811388 6.05270463 7 3 C6.01 2.67 5.02 2.34 4 2 C5.65 1.67 7.3 1.34 9 1 C9.02698189 2.62490954 9.04638757 4.24994633 9.0625 5.875 C9.07410156 6.77992188 9.08570313 7.68484375 9.09765625 8.6171875 C9 11 9 11 8 13 C5.9375 13.625 5.9375 13.625 4 14 C4.66 14.33 5.32 14.66 6 15 C5.01 17.475 5.01 17.475 4 20 C2.68 19.34 1.36 18.68 0 18 C0 12.06 0 6.12 0 0 Z " fill="#DD5998" transform="translate(333,295)"/>
<path d="M0 0 C0.33 0.66 0.66 1.32 1 2 C2.6476038 2.71247732 4.31763529 3.37400383 6 4 C7.34050052 4.65213539 8.67661368 5.31379969 10 6 C9.67 8.64 9.34 11.28 9 14 C5.98968256 14.93423645 5.13349732 15.04449911 2 14 C1.663389 12.22978678 1.33082707 10.45880326 1 8.6875 C0.814375 7.70136719 0.62875 6.71523437 0.4375 5.69921875 C0 3 0 3 0 0 Z " fill="#F79069" transform="translate(329,245)"/>
<path d="M0 0 C7.59 0 15.18 0 23 0 C24 4 24 4 23 6 C23.66 6 24.32 6 25 6 C25 6.66 25 7.32 25 8 C25.99 8.33 26.98 8.66 28 9 C27 10 27 10 23.1875 10.25 C20.32860121 10.21407129 19.08964849 10.04706546 16.5 8.6875 C14.50266108 6.44049371 15 4.8847269 15 2 C10.05 1.67 5.1 1.34 0 1 C0 0.67 0 0.34 0 0 Z " fill="#63DDD4" transform="translate(210,163)"/>
<path d="M0 0 C2.16276748 4.32553497 4 8.12100108 4 13 C0.77208445 15.1519437 -0.28400809 15.20086443 -4 15 C-4 15.763125 -4 16.52625 -4 17.3125 C-4 19.20833333 -4 21.10416667 -4 23 C-5.32 22.67 -6.64 22.34 -8 22 C-5.36 14.74 -2.72 7.48 0 0 Z " fill="#5AB1E4" transform="translate(114,362)"/>
<path d="M0 0 C2.19752277 3.66253795 3.14060428 6.71156933 3 11 C-0.38733028 16.21785725 -4.03313869 20.02151441 -10 22 C-10 21.34 -10 20.68 -10 20 C-11.98 20.99 -11.98 20.99 -14 22 C-14 21.34 -14 20.68 -14 20 C-15.65 20.33 -17.3 20.66 -19 21 C-17.71937515 19.2925002 -16.38232443 17.62626404 -15 16 C-14.34 16 -13.68 16 -13 16 C-13 16.99 -13 17.98 -13 19 C-12.401875 18.814375 -11.80375 18.62875 -11.1875 18.4375 C-9 18 -9 18 -6 19 C-6 17.68 -6 16.36 -6 15 C-4.7934375 14.6596875 -4.7934375 14.6596875 -3.5625 14.3125 C-0.77241554 13.24642852 -0.77241554 13.24642852 -0.0625 10.5 C-0.041875 9.675 -0.02125 8.85 0 8 C-1.84188612 5.94729537 -1.84188612 5.94729537 -4 5 C-2.68 3.35 -1.36 1.7 0 0 Z " fill="#8240BB" transform="translate(312,352)"/>
<path d="M0 0 C1.47906892 -0.02689216 2.95827483 -0.04634621 4.4375 -0.0625 C5.26121094 -0.07410156 6.08492187 -0.08570313 6.93359375 -0.09765625 C9 0 9 0 10 1 C11.34747084 1.23075082 12.70377565 1.41153063 14.0625 1.5625 C15.361875 1.706875 16.66125 1.85125 18 2 C18.33 3.65 18.66 5.3 19 7 C15.7 7.66 12.4 8.32 9 9 C8.34 7.68 7.68 6.36 7 5 C6.34 5 5.68 5 5 5 C5.33 3.68 5.66 2.36 6 1 C4.02 1 2.04 1 0 1 C0 0.67 0 0.34 0 0 Z " fill="#6AF0E7" transform="translate(228,164)"/>
<path d="M0 0 C2.625 1.1875 2.625 1.1875 5 3 C5 4.32 5 5.64 5 7 C5.99 7 6.98 7 8 7 C8.33 7.99 8.66 8.98 9 10 C11.01508358 10.73323796 11.01508358 10.73323796 13 11 C13 11.66 13 12.32 13 13 C14.11375 12.649375 15.2275 12.29875 16.375 11.9375 C20 11 20 11 22 12 C22.33 11.01 22.66 10.02 23 9 C23.66 9 24.32 9 25 9 C24.625 10.9375 24.625 10.9375 24 13 C20.07507038 14.96246481 15.28893099 14.3423675 11 14 C6.79094879 12.26147885 4.11544162 9.27941223 1 6 C0.401875 5.443125 -0.19625 4.88625 -0.8125 4.3125 C-2 3 -2 3 -2 1 C-1.34 0.67 -0.68 0.34 0 0 Z " fill="#DD5D99" transform="translate(247,335)"/>
<path d="M0 0 C0.99 0.33 1.98 0.66 3 1 C2.55037804 2.96035175 2.09001752 4.91824309 1.625 6.875 C1.36976562 7.96554688 1.11453125 9.05609375 0.8515625 10.1796875 C0 13 0 13 -2 15 C-2 13.68 -2 12.36 -2 11 C-4.64 11.66 -7.28 12.32 -10 13 C-9.71640113 11.5608866 -9.42278601 10.12374482 -9.125 8.6875 C-8.96257812 7.88699219 -8.80015625 7.08648437 -8.6328125 6.26171875 C-8 4 -8 4 -6 1 C-6 1.66 -6 2.32 -6 3 C-5.34 3.33 -4.68 3.66 -4 4 C-3.375 6.0625 -3.375 6.0625 -3 8 C-2.34 8 -1.68 8 -1 8 C-0.67 5.36 -0.34 2.72 0 0 Z " fill="#5AD9D8" transform="translate(114,242)"/>
<path d="M0 0 C3.41021743 0.78697325 6.68885166 1.87119943 10 3 C10 3.66 10 4.32 10 5 C10.66 5.33 11.32 5.66 12 6 C12.625 8.0625 12.625 8.0625 13 10 C11.02 10.99 11.02 10.99 9 12 C8.566875 11.525625 8.13375 11.05125 7.6875 10.5625 C5.97690387 8.76313043 5.97690387 8.76313043 3 8 C3 7.34 3 6.68 3 6 C1.68 5.34 0.36 4.68 -1 4 C-0.67 2.68 -0.34 1.36 0 0 Z " fill="#F8BE73" transform="translate(283,183)"/>
<path d="M0 0 C3.23077598 3.80770026 5.8043091 7.52729632 8 12 C7.75 14.4375 7.75 14.4375 7 16 C5.9171875 15.9071875 5.9171875 15.9071875 4.8125 15.8125 C1.46090075 16.03593995 -0.21725908 17.19497887 -3 19 C-3.66 19 -4.32 19 -5 19 C-4.01 15.535 -4.01 15.535 -3 12 C-2.01 12 -1.02 12 0 12 C1.68798827 10.56249809 1.68798827 10.56249809 3 9 C2.34 8.34 1.68 7.68 1 7 C1.33 6.01 1.66 5.02 2 4 C1.34 4 0.68 4 0 4 C0 2.68 0 1.36 0 0 Z " fill="#63B1DF" transform="translate(121,339)"/>
<path d="M0 0 C0.99 0.33 1.98 0.66 3 1 C-2.63744917 8.16108408 -9.41897478 13.94598319 -17 19 C-17.33 17.02 -17.66 15.04 -18 13 C-16.02 12.67 -14.04 12.34 -12 12 C-12 11.34 -12 10.68 -12 10 C-11.01 10 -10.02 10 -9 10 C-9 9.34 -9 8.68 -9 8 C-8.34 8 -7.68 8 -7 8 C-6.67 6.68 -6.34 5.36 -6 4 C-5.01 4 -4.02 4 -3 4 C-3 3.34 -3 2.68 -3 2 C-2.01 1.34 -1.02 0.68 0 0 Z " fill="#E48D63" transform="translate(278,236)"/>
<path d="M0 0 C0.33 0 0.66 0 1 0 C1.33 2.64 1.66 5.28 2 8 C2.2475 7.195625 2.495 6.39125 2.75 5.5625 C3.1625 4.716875 3.575 3.87125 4 3 C5.32 2.67 6.64 2.34 8 2 C8.66 4.97 9.32 7.94 10 11 C8.35 11.66 6.7 12.32 5 13 C4.34 12.34 3.68 11.68 3 11 C2.34 12.65 1.68 14.3 1 16 C0.67 16 0.34 16 0 16 C0 10.72 0 5.44 0 0 Z " fill="#C37CB4" transform="translate(162,269)"/>
<path d="M0 0 C2.64 0.33 5.28 0.66 8 1 C8 2.65 8 4.3 8 6 C7.34 6 6.68 6 6 6 C6 6.66 6 7.32 6 8 C3.03 8 0.06 8 -3 8 C-3.66 6.68 -4.32 5.36 -5 4 C-4.67 3.34 -4.34 2.68 -4 2 C-2.68 2 -1.36 2 0 2 C0 1.34 0 0.68 0 0 Z " fill="#A861EE" transform="translate(137,379)"/>
<path d="M0 0 C5.26053037 -0.31563182 8.44573816 0.33409063 13 3 C13 3.66 13 4.32 13 5 C13.66 5 14.32 5 15 5 C15 5.66 15 6.32 15 7 C16.98 7 18.96 7 21 7 C21 7.99 21 8.98 21 10 C19.783125 9.690625 18.56625 9.38125 17.3125 9.0625 C15.0401035 8.48942628 12.80951146 7.9666645 10.5 7.5625 C6.84895446 6.74101475 3.48575082 5.35885201 0 4 C0 2.68 0 1.36 0 0 Z " fill="#5659D3" transform="translate(170,304)"/>
<path d="M0 0 C2.77160662 2.39366027 4.07263207 4.44508961 5 8 C4.86736097 11.03539309 4.48333879 14.00199318 4 17 C1.51339545 16.6121322 0.27654781 16.29037521 -1.484375 14.44140625 C-1.90203125 13.82136719 -2.3196875 13.20132813 -2.75 12.5625 C-3.17796875 11.94503906 -3.6059375 11.32757813 -4.046875 10.69140625 C-5 9 -5 9 -5 7 C-3.35 6.67 -1.7 6.34 0 6 C0 4.68 0 3.36 0 2 C0 1.34 0 0.68 0 0 Z " fill="#EFA36F" transform="translate(316,208)"/>
<path d="M0 0 C2.0625 1.75 2.0625 1.75 4 4 C3.875 6 3.875 6 3 8 C1.15234375 9.265625 1.15234375 9.265625 -1.0625 10.25 C-1.79597656 10.58515625 -2.52945312 10.9203125 -3.28515625 11.265625 C-4.13400391 11.62914062 -4.13400391 11.62914062 -5 12 C-4.67 10.02 -4.34 8.04 -4 6 C-5.32 5.34 -6.64 4.68 -8 4 C-5.53721199 1.53721199 -3.29323018 1.00228745 0 0 Z " fill="#C44684" transform="translate(285,379)"/>
<path d="M0 0 C2.31 0 4.62 0 7 0 C6.67 1.32 6.34 2.64 6 4 C6 3.01 6 2.02 6 1 C1.76752164 2.13752472 0.04829905 3.86276471 -2.18554688 7.6015625 C-2.51619141 8.18679688 -2.84683594 8.77203125 -3.1875 9.375 C-3.52974609 9.9525 -3.87199219 10.53 -4.22460938 11.125 C-5.93150117 14.02837322 -7.54185378 16.9640648 -9 20 C-9.66 20 -10.32 20 -11 20 C-11.33 17.69 -11.66 15.38 -12 13 C-10.68 12.67 -9.36 12.34 -8 12 C-7.67 10.68 -7.34 9.36 -7 8 C-6.34 8 -5.68 8 -5 8 C-5 7.01 -5 6.02 -5 5 C-4.01 5 -3.02 5 -2 5 C-1.34 3.35 -0.68 1.7 0 0 Z " fill="#CC898B" transform="translate(181,253)"/>
<path d="M0 0 C0 3.55422486 -0.52791912 3.89315849 -2.875 6.375 C-5.37752893 9.16403341 -6.72699416 11.45376944 -8 15 C-10.28487433 18.73196141 -12.52707643 22.28677846 -16 25 C-18.125 24.59765625 -18.125 24.59765625 -20 24 C-13.43515815 15.91146646 -6.74905613 7.9348716 0 0 Z " fill="#DD9F98" transform="translate(239,234)"/>
<path d="M0 0 C-0.99 0 -1.98 0 -3 0 C-3 0.66 -3 1.32 -3 2 C-4.11375 2.12375 -5.2275 2.2475 -6.375 2.375 C-10.03103677 2.6465813 -10.03103677 2.6465813 -12 5 C-13.66666667 5 -15.33333333 5 -17 5 C-17 5.99 -17 6.98 -17 8 C-15.02 8.66 -13.04 9.32 -11 10 C-14.57644848 11.2380014 -17.33694766 10.74926071 -21 10 C-20.67 8.35 -20.34 6.7 -20 5 C-20.99 4.67 -21.98 4.34 -23 4 C-23 3.67 -23 3.34 -23 3 C-19.91979223 2.29795962 -16.83548264 1.61594792 -13.75 0.9375 C-12.87730469 0.73833984 -12.00460938 0.53917969 -11.10546875 0.33398438 C-10.26113281 0.15029297 -9.41679687 -0.03339844 -8.546875 -0.22265625 C-7.77182617 -0.39547119 -6.99677734 -0.56828613 -6.19824219 -0.74633789 C-3.84824709 -1.01751125 -2.23802732 -0.71554459 0 0 Z " fill="#E6586D" transform="translate(257,393)"/>
<path d="M0 0 C0.66 0.66 1.32 1.32 2 2 C-4.0998427 7.67375075 -10.17933967 13.19231392 -17 18 C-17 17.01 -17 16.02 -17 15 C-16.34 15 -15.68 15 -15 15 C-14.67 13.68 -14.34 12.36 -14 11 C-12.68 11 -11.36 11 -10 11 C-10.33 10.01 -10.66 9.02 -11 8 C-9.68 6.68 -8.36 5.36 -7 4 C-6.01 4.33 -5.02 4.66 -4 5 C-3.896875 4.360625 -3.79375 3.72125 -3.6875 3.0625 C-3.460625 2.381875 -3.23375 1.70125 -3 1 C-2.01 0.67 -1.02 0.34 0 0 Z " fill="#DB835F" transform="translate(255,257)"/>
<path d="M0 0 C1.07314453 0.00322266 2.14628906 0.00644531 3.25195312 0.00976562 C4.37150391 0.01814453 5.49105469 0.02652344 6.64453125 0.03515625 C8.34125977 0.04192383 8.34125977 0.04192383 10.07226562 0.04882812 C12.86724052 0.06062127 15.66210945 0.07707975 18.45703125 0.09765625 C18.45703125 0.42765625 18.45703125 0.75765625 18.45703125 1.09765625 C17.86164551 1.11747559 17.26625977 1.13729492 16.65283203 1.15771484 C13.96210972 1.25281751 11.27217977 1.36255467 8.58203125 1.47265625 C7.64488281 1.50359375 6.70773438 1.53453125 5.7421875 1.56640625 C4.84628906 1.60507813 3.95039063 1.64375 3.02734375 1.68359375 C2.19992676 1.71501465 1.37250977 1.74643555 0.52001953 1.77880859 C-1.7628296 1.92364762 -1.7628296 1.92364762 -3.54296875 4.09765625 C-4.65671875 4.20078125 -5.77046875 4.30390625 -6.91796875 4.41015625 C-10.64246827 4.75711565 -10.64246827 4.75711565 -12.79296875 7.41015625 C-13.37046875 8.29703125 -13.94796875 9.18390625 -14.54296875 10.09765625 C-15.12046875 10.86078125 -15.69796875 11.62390625 -16.29296875 12.41015625 C-16.91171875 13.24546875 -16.91171875 13.24546875 -17.54296875 14.09765625 C-17.54296875 10.73252119 -17.08239838 8.69272211 -14.80078125 6.17578125 C-9.84715958 1.78465874 -6.72707606 -0.035593 0 0 Z " fill="#CBB991" transform="translate(178.54296875,214.90234375)"/>
<path d="M0 0 C-1.15173355 2.46800047 -2.04783565 4.04783565 -4 6 C-3.67 6.66 -3.34 7.32 -3 8 C-6.00988272 8.58052245 -8.92889402 9.05989746 -12 9 C-14.0625 7.0625 -14.0625 7.0625 -15 5 C-14.2575 4.731875 -13.515 4.46375 -12.75 4.1875 C-10.12063827 3.0520938 -8.25638662 1.72989641 -6 0 C-3 -1 -3 -1 0 0 Z " fill="#61F4E8" transform="translate(192,169)"/>
<path d="M0 0 C1.32 0.33 2.64 0.66 4 1 C4.33 4.3 4.66 7.6 5 11 C0.76570244 9.68938409 -3.07407404 8.05643741 -7 6 C-7 5.34 -7 4.68 -7 4 C-2.25 4.875 -2.25 4.875 0 6 C0 5.34 0 4.68 0 4 C-0.66 4 -1.32 4 -2 4 C-1.34 2.68 -0.68 1.36 0 0 Z " fill="#E85F90" transform="translate(166,382)"/>
<path d="M0 0 C1.32 0.66 2.64 1.32 4 2 C4 4.31 4 6.62 4 9 C3.01 9.33 2.02 9.66 1 10 C1 10.66 1 11.32 1 12 C-0.32 11.67 -1.64 11.34 -3 11 C-3 8.36 -3 5.72 -3 3 C-1.68 3 -0.36 3 1 3 C0.67 2.01 0.34 1.02 0 0 Z " fill="#F87B6E" transform="translate(337,266)"/>
<path d="M0 0 C0.99 0 1.98 0 3 0 C3.08114106 1.77007714 3.13925505 3.54122098 3.1875 5.3125 C3.22230469 6.29863281 3.25710937 7.28476562 3.29296875 8.30078125 C3 11 3 11 1.48828125 12.85546875 C0.99714844 13.23316406 0.50601563 13.61085938 0 14 C-0.66 13.67 -1.32 13.34 -2 13 C-2 11.68 -2 10.36 -2 9 C-2.04125 7.80375 -2.0825 6.6075 -2.125 5.375 C-2 2 -2 2 0 0 Z " fill="#64CFF7" transform="translate(108,310)"/>
<path d="M0 0 C4.52615993 3.67832017 8.39424999 7.41086363 12 12 C9 12 9 12 6 10 C5.67 9.01 5.34 8.02 5 7 C2.61435923 7.57584432 0.33317216 8.22227595 -2 9 C-2.66 7.68 -3.32 6.36 -4 5 C-2.68 3.35 -1.36 1.7 0 0 Z " fill="#E7A672" transform="translate(304,195)"/>
<path d="M0 0 C0.33 1.65 0.66 3.3 1 5 C-0.98 5 -2.96 5 -5 5 C-2.525 6.98 -2.525 6.98 0 9 C-2.475 10.485 -2.475 10.485 -5 12 C-5.99 10.35 -6.98 8.7 -8 7 C-9.65 7.33 -11.3 7.66 -13 8 C-11.33333333 6.66666667 -9.66666667 5.33333333 -8 4 C-7.13375 3.2575 -6.2675 2.515 -5.375 1.75 C-3 0 -3 0 0 0 Z " fill="#923FA1" transform="translate(294,373)"/>
<path d="M0 0 C0.66 0.33 1.32 0.66 2 1 C2.36923077 8.50769231 2.36923077 8.50769231 0.5 11 C0.005 11.33 -0.49 11.66 -1 12 C-1.66 11.34 -2.32 10.68 -3 10 C-3 8.68 -3 7.36 -3 6 C-3.66 6 -4.32 6 -5 6 C-5 4.68 -5 3.36 -5 2 C-2.625 0.9375 -2.625 0.9375 0 0 Z " fill="#C74EBF" transform="translate(334,318)"/>
<path d="M0 0 C1.32 0.66 2.64 1.32 4 2 C3.75 4.875 3.75 4.875 3 8 C1.1875 9.5 1.1875 9.5 -1 10 C-3.25 9.125 -3.25 9.125 -5 8 C-5 6.68 -5 5.36 -5 4 C-3.35 3.34 -1.7 2.68 0 2 C0 1.34 0 0.68 0 0 Z " fill="#E64A80" transform="translate(277,383)"/>
<path d="M0 0 C0.66 0.99 1.32 1.98 2 3 C2.66 2.34 3.32 1.68 4 1 C4 3.97 4 6.94 4 10 C-2.4 11.23076923 -2.4 11.23076923 -5.4375 10.0625 C-5.953125 9.711875 -6.46875 9.36125 -7 9 C-5.02 8.34 -3.04 7.68 -1 7 C-1.020625 6.030625 -1.04125 5.06125 -1.0625 4.0625 C-1 1 -1 1 0 0 Z " fill="#5F4FC4" transform="translate(192,301)"/>
<path d="M0 0 C1.32 0.33 2.64 0.66 4 1 C4.34782609 7.26086957 4.34782609 7.26086957 2 10 C-0.70082571 10.6614267 -3.20365754 10.81959081 -6 11 C-6 10.34 -6 9.68 -6 9 C-5.01 8.67 -4.02 8.34 -3 8 C-1.98245132 6.1346755 -1.98245132 6.1346755 -1.3125 3.9375 C-1.06113281 3.20402344 -0.80976562 2.47054688 -0.55078125 1.71484375 C-0.36902344 1.14894531 -0.18726562 0.58304687 0 0 Z " fill="#8185F5" transform="translate(118,383)"/>
<path d="M0 0 C1.32 0 2.64 0 4 0 C3.814375 0.556875 3.62875 1.11375 3.4375 1.6875 C2.92371876 4.40320082 3.44901578 6.3139519 4 9 C3.67 9.99 3.34 10.98 3 12 C0.17216424 8.80331609 -0.63139654 6.23893982 -1 2 C-0.67 1.34 -0.34 0.68 0 0 Z M2 12 C2.66 12.66 3.32 13.32 4 14 C3.7578125 16.1640625 3.7578125 16.1640625 3.125 18.625 C2.92132813 19.44226563 2.71765625 20.25953125 2.5078125 21.1015625 C2.34023437 21.72804688 2.17265625 22.35453125 2 23 C0.64984141 18.94952424 1.37915002 16.2079832 2 12 Z " fill="#6B47A5" transform="translate(188,284)"/>
<path d="M0 0 C4.42741644 1.35282169 6.36309221 3.23298888 9 7 C10.38226016 9.76452033 10.09525387 12.0461363 10.0625 15.125 C10.05347656 16.22070312 10.04445312 17.31640625 10.03515625 18.4453125 C10.02355469 19.28835937 10.01195312 20.13140625 10 21 C9.67 21 9.34 21 9 21 C8.67 16.71 8.34 12.42 8 8 C6.35 7.67 4.7 7.34 3 7 C0.55352838 4.46916729 0 3.5747073 0 0 Z " fill="#E5B47E" transform="translate(198,216)"/>
<path d="M0 0 C0.33 1.32 0.66 2.64 1 4 C-0.625 5.5625 -0.625 5.5625 -3 7 C-6.25 6.6875 -6.25 6.6875 -9 6 C-9 4.68 -9 3.36 -9 2 C-5.5647952 -0.29013653 -4.014669 -0.17842973 0 0 Z " fill="#9E65FA" transform="translate(131,383)"/>
<path d="M0 0 C2 2 2 2 2.25 5 C2 8 2 8 0 10 C-0.67651207 12.19704511 -0.67651207 12.19704511 -1.125 14.625 C-1.29257813 15.44226563 -1.46015625 16.25953125 -1.6328125 17.1015625 C-1.75398437 17.72804688 -1.87515625 18.35453125 -2 19 C-2.33 19 -2.66 19 -3 19 C-3.55353075 5.18223235 -3.55353075 5.18223235 0 0 Z " fill="#AD74CE" transform="translate(165,279)"/>
<path d="M0 0 C-1.4859916 4.59306496 -3.85014682 7.43569245 -7 11 C-7.625 9.125 -7.625 9.125 -8 7 C-7.34 6.34 -6.68 5.68 -6 5 C-6.66 5 -7.32 5 -8 5 C-8 3.68 -8 2.36 -8 1 C-4.93251126 -0.86240388 -3.40254489 -1.2151946 0 0 Z " fill="#8441C4" transform="translate(323,351)"/>
<path d="M0 0 C8.22204344 6.75784393 8.22204344 6.75784393 10 10 C10.1875 12.75 10.1875 12.75 10 15 C9.01 14.34 8.02 13.68 7 13 C7 12.34 7 11.68 7 11 C5.35 10.67 3.7 10.34 2 10 C2.33 8.35 2.66 6.7 3 5 C2.01 4.34 1.02 3.68 0 3 C0 2.01 0 1.02 0 0 Z " fill="#E26E8B" transform="translate(271,316)"/>
<path d="M0 0 C0.66 0.33 1.32 0.66 2 1 C1.21625 1.5775 0.4325 2.155 -0.375 2.75 C-3.02526413 4.72714742 -3.02526413 4.72714742 -4 7 C-5.39530521 9.79061042 -7.56184836 11.08430943 -10 13 C-11.37368345 14.63356951 -12.71937515 16.2925002 -14 18 C-14.66 17.67 -15.32 17.34 -16 17 C-15.4946875 16.45730469 -14.989375 15.91460937 -14.46875 15.35546875 C-13.8190625 14.64003906 -13.169375 13.92460937 -12.5 13.1875 C-11.8503125 12.47980469 -11.200625 11.77210938 -10.53125 11.04296875 C-8.70012241 9.02542907 -8.70012241 9.02542907 -9 6 C-6.75 4.5 -6.75 4.5 -4 3 C-2.65368175 2.01755155 -1.31558703 1.02323436 0 0 Z " fill="#EB9980" transform="translate(248,227)"/>
<path d="M0 0 C2.31 0.66 4.62 1.32 7 2 C3.80331012 4.6486859 0.60513403 6.93992341 -3 9 C-3.99 8.01 -4.98 7.02 -6 6 C-4.71034824 4.62437146 -3.37310707 3.29233607 -2 2 C-1.34 2 -0.68 2 0 2 C0 1.34 0 0.68 0 0 Z " fill="#323528" transform="translate(272,174)"/>
<path d="M0 0 C0.598125 0.309375 1.19625 0.61875 1.8125 0.9375 C4.08956772 2.10209704 4.08956772 2.10209704 7 3 C6.67 4.65 6.34 6.3 6 8 C3.08517222 8.80967438 1.53886783 9.21845993 -1.3125 8.0625 C-1.869375 7.711875 -2.42625 7.36125 -3 7 C-2.01 7 -1.02 7 0 7 C-0.185625 6.401875 -0.37125 5.80375 -0.5625 5.1875 C-1 3 -1 3 0 0 Z " fill="#DE5BA6" transform="translate(154,377)"/>
<path d="M0 0 C2.13555518 2.59980631 3.7001511 4.60171245 4 8 C3.0625 11.25 3.0625 11.25 2 14 C1.67 12.68 1.34 11.36 1 10 C0.01 10.33 -0.98 10.66 -2 11 C-2.28571429 3.57142857 -2.28571429 3.57142857 0 0 Z " fill="#8B438A" transform="translate(196,272)"/>
<path d="M0 0 C1.65 0.33 3.3 0.66 5 1 C4.01 1.495 4.01 1.495 3 2 C3 2.66 3 3.32 3 4 C2.34 4 1.68 4 1 4 C1 6.31 1 8.62 1 11 C0.67 10.34 0.34 9.68 0 9 C-0.66 9 -1.32 9 -2 9 C-2.33 7.68 -2.66 6.36 -3 5 C-3.99 5.33 -4.98 5.66 -6 6 C-6 5.34 -6 4.68 -6 4 C-4.02 3.34 -2.04 2.68 0 2 C0 1.34 0 0.68 0 0 Z " fill="#61BCF3" transform="translate(122,354)"/>
<path d="M0 0 C0 1.65 0 3.3 0 5 C-1.11375 5.28875 -2.2275 5.5775 -3.375 5.875 C-7.00291092 6.69241329 -7.00291092 6.69241329 -9 9 C-10.125 5.25 -10.125 5.25 -9 3 C-7.01751285 2.28293018 -5.01584651 1.61709587 -3 1 C-1 0 -1 0 0 0 Z " fill="#5FAEF7" transform="translate(119,374)"/>
<path d="M0 0 C0.99 0.99 1.98 1.98 3 3 C3 4.32 3 5.64 3 7 C1.68 7 0.36 7 -1 7 C-1 7.763125 -1 8.52625 -1 9.3125 C-1 11.20833333 -1 13.10416667 -1 15 C-2.32 14.67 -3.64 14.34 -5 14 C-3.35 9.38 -1.7 4.76 0 0 Z " fill="#5EABDB" transform="translate(111,370)"/>
<path d="M0 0 C0 0.66 0 1.32 0 2 C2.31 2 4.62 2 7 2 C6.67 2.66 6.34 3.32 6 4 C4.68 4 3.36 4 2 4 C2 4.99 2 5.98 2 7 C-1.25543229 6.65120368 -2.01873107 5.97866739 -4.25 3.4375 C-5.11625 2.2309375 -5.11625 2.2309375 -6 1 C-4 0 -4 0 0 0 Z " fill="#9755EE" transform="translate(170,342)"/>
<path d="M0 0 C-0.33 1.65 -0.66 3.3 -1 5 C-1.66 5 -2.32 5 -3 5 C-3.33 4.34 -3.66 3.68 -4 3 C-7.87797662 2.56613908 -7.87797662 2.56613908 -9.75 4.5 C-10.1625 4.995 -10.575 5.49 -11 6 C-11.99 5.01 -12.98 4.02 -14 3 C-8.99067246 -0.00559652 -5.67276511 -0.29341888 0 0 Z " fill="#F2E2E2" transform="translate(195,270)"/>
<path d="M0 0 C0.66 0.33 1.32 0.66 2 1 C1.814375 1.639375 1.62875 2.27875 1.4375 2.9375 C0.93328254 6.46702225 1.27936323 9.49646989 1.74609375 13.01171875 C2 15 2 15 2 17 C1.01 17 0.02 17 -1 17 C-1.22126178 14.54220024 -1.42750395 12.08472352 -1.625 9.625 C-1.68945312 8.92632812 -1.75390625 8.22765625 -1.8203125 7.5078125 C-1.96119739 5.67630889 -1.98761659 3.83687252 -2 2 C-1.34 1.34 -0.68 0.68 0 0 Z " fill="#9879D6" transform="translate(168,288)"/>
<path d="M0 0 C0 0.66 0 1.32 0 2 C-1.98 2.66 -3.96 3.32 -6 4 C-6.33 5.98 -6.66 7.96 -7 10 C-7.66 10 -8.32 10 -9 10 C-10.4606285 7.35261084 -11 6.10551666 -11 3 C-4.5 0 -4.5 0 0 0 Z " fill="#42335F" transform="translate(191,277)"/>
<path d="M0 0 C0 0.66 0 1.32 0 2 C-0.99 2 -1.98 2 -3 2 C-3.33 2.99 -3.66 3.98 -4 5 C-6.92079805 7.07530387 -8.37546731 8 -12 8 C-12 8.99 -12 9.98 -12 11 C-13.32 10.34 -14.64 9.68 -16 9 C-13.71180854 7.49445366 -11.41978831 5.99542957 -9.125 4.5 C-8.47402344 4.07074219 -7.82304687 3.64148438 -7.15234375 3.19921875 C-2.2265625 0 -2.2265625 0 0 0 Z " fill="#64D8CA" transform="translate(163,179)"/>
<path d="M0 0 C0 0.66 0 1.32 0 2 C2.64 2 5.28 2 8 2 C8 2.33 8 2.66 8 3 C-0.25 3 -8.5 3 -17 3 C-14.34932646 0.34932646 -12.75528503 0.61670957 -9.0625 0.375 C-8.00160156 0.30023438 -6.94070312 0.22546875 -5.84765625 0.1484375 C-3.90045323 0.04693721 -1.94984664 0 0 0 Z " fill="#74EFE9" transform="translate(226,169)"/>
<path d="M0 0 C-0.350625 0.61875 -0.70125 1.2375 -1.0625 1.875 C-1.5265625 2.926875 -1.5265625 2.926875 -2 4 C-1.67 4.66 -1.34 5.32 -1 6 C-3.64 5.67 -6.28 5.34 -9 5 C-8.75 3.125 -8.75 3.125 -8 1 C-5.08518252 -1.1107299 -3.34823603 -1.19579858 0 0 Z " fill="#FB5D6F" transform="translate(248,397)"/>
<path d="M0 0 C1.32 1.65 2.64 3.3 4 5 C3.67 5.66 3.34 6.32 3 7 C4.32 7.66 5.64 8.32 7 9 C3.625 9.625 3.625 9.625 0 10 C-0.66 9.34 -1.32 8.68 -2 8 C-1.69347955 5.0574037 -1.32728846 2.65457692 0 0 Z " fill="#669CDF" transform="translate(105,386)"/>
<path d="M0 0 C0.66 0.33 1.32 0.66 2 1 C1.29875 1.66 0.5975 2.32 -0.125 3 C-2.22252227 5.70130685 -2.22252227 5.70130685 -1.85546875 8.04296875 C-1.14375267 10.85399125 -0.29744582 13.40510837 1 16 C0.0625 18.125 0.0625 18.125 -1 20 C-1.50904657 18.12743583 -2.00682455 16.25180659 -2.5 14.375 C-2.91765625 12.80878906 -2.91765625 12.80878906 -3.34375 11.2109375 C-3.99118596 8.04312582 -4.1161292 5.22258533 -4 2 C-2.125 0.9375 -2.125 0.9375 0 0 Z " fill="#5F439F" transform="translate(190,280)"/>
<path d="M0 0 C0.66 0 1.32 0 2 0 C6 5.29411765 6 5.29411765 6 9 C3.03 8.505 3.03 8.505 0 8 C0 5.33333333 0 2.66666667 0 0 Z " fill="#D5647A" transform="translate(188,259)"/>
<path d="M0 0 C0.33 0 0.66 0 1 0 C2.04350941 6.95253862 2.46505172 11.7629069 -1 18 C-1.66 18 -2.32 18 -3 18 C-2 12 -1 6 0 0 Z " fill="#BA50A0" transform="translate(332,302)"/>
<path d="M0 0 C2.86855713 0.08436933 4.55682315 0.58692181 6.66796875 2.5546875 C11 7.51440024 11 7.51440024 11 10 C10.34 10 9.68 10 9 10 C9 9.34 9 8.68 9 8 C8.401875 7.71125 7.80375 7.4225 7.1875 7.125 C5 6 5 6 2 4 C2 3.34 2 2.68 2 2 C1.34 2 0.68 2 0 2 C0 1.34 0 0.68 0 0 Z " fill="#E2A87B" transform="translate(270,216)"/>
<path d="M0 0 C-2.97 1.32 -5.94 2.64 -9 4 C-9 4.33 -9 4.66 -9 5 C-12.63 5.33 -16.26 5.66 -20 6 C-16.91409445 3.94272963 -14.0065132 2.67681397 -10.5625 1.3125 C-9.42941406 0.85488281 -8.29632813 0.39726562 -7.12890625 -0.07421875 C-4 -1 -4 -1 0 0 Z " fill="#5FC8BE" transform="translate(192,168)"/>
<path d="M0 0 C2.0625 0.4375 2.0625 0.4375 4 1 C4 3.31 4 5.62 4 8 C2.35 7.67 0.7 7.34 -1 7 C-1.04254356 5.00045254 -1.04080783 2.99958364 -1 1 C-0.67 0.67 -0.34 0.34 0 0 Z " fill="#D15CDA" transform="translate(150,376)"/>
<path d="M0 0 C0.804375 0.185625 1.60875 0.37125 2.4375 0.5625 C3.283125 0.706875 4.12875 0.85125 5 1 C5.33 0.67 5.66 0.34 6 0 C7.99958364 -0.04080783 10.00045254 -0.04254356 12 0 C8.35140239 3.04049801 4.2555467 4.96518762 0 7 C0 6.01 0 5.02 0 4 C0.66 3.67 1.32 3.34 2 3 C1.34 2.01 0.68 1.02 0 0 Z " fill="#64E4DC" transform="translate(163,182)"/>
<path d="M0 0 C0.99 0.33 1.98 0.66 3 1 C2.55037804 2.96035175 2.09001752 4.91824309 1.625 6.875 C1.36976562 7.96554688 1.11453125 9.05609375 0.8515625 10.1796875 C0 13 0 13 -2 15 C-2.66 13.02 -3.32 11.04 -4 9 C-3.01 8.67 -2.02 8.34 -1 8 C-0.67 5.36 -0.34 2.72 0 0 Z " fill="#68D6DA" transform="translate(114,242)"/>
<path d="M0 0 C0.66 0.33 1.32 0.66 2 1 C1.67 1.99 1.34 2.98 1 4 C1.99 4 2.98 4 4 4 C6.1875 5.875 6.1875 5.875 8 8 C8 8.66 8 9.32 8 10 C8.66 10.33 9.32 10.66 10 11 C5.86218946 11 4.79080004 9.28490393 1.8125 6.5 C0.91144531 5.6646875 0.01039063 4.829375 -0.91796875 3.96875 C-1.60503906 3.3190625 -2.29210937 2.669375 -3 2 C-2.01 1.34 -1.02 0.68 0 0 Z " fill="#E4AE7C" transform="translate(294,194)"/>
<path d="M0 0 C-1.875 3.875 -1.875 3.875 -3 5 C-3.23075082 6.34747084 -3.41153063 7.70377565 -3.5625 9.0625 C-3.7790625 11.0115625 -3.7790625 11.0115625 -4 13 C-4.66 12.67 -5.32 12.34 -6 12 C-6 8.7 -6 5.4 -6 2 C-2 0 -2 0 0 0 Z " fill="#EC796E" transform="translate(238,273)"/>
<path d="M0 0 C1.65 0 3.3 0 5 0 C5.33 1.32 5.66 2.64 6 4 C4.03533587 5.06775224 2.03144641 6.06553465 0 7 C-0.66 6.67 -1.32 6.34 -2 6 C-1.34 4.02 -0.68 2.04 0 0 Z " fill="#EEE9F2" transform="translate(186,272)"/>
<path d="M0 0 C1.32 0 2.64 0 4 0 C4 2.64 4 5.28 4 8 C2.02 7.01 0.04 6.02 -2 5 C-1.34 3.35 -0.68 1.7 0 0 Z " fill="#65EEEB" transform="translate(118,225)"/>
<path d="M0 0 C1.65 0.33 3.3 0.66 5 1 C4.67 1.99 4.34 2.98 4 4 C0.7 4.33 -2.6 4.66 -6 5 C-5.67 4.01 -5.34 3.02 -5 2 C-3.35 2 -1.7 2 0 2 C0 1.34 0 0.68 0 0 Z " fill="#57F7E7" transform="translate(145,193)"/>
<path d="M0 0 C0.33 1.32 0.66 2.64 1 4 C1.66 4 2.32 4 3 4 C2.67 5.32 2.34 6.64 2 8 C0.68 7.67 -0.64 7.34 -2 7 C-2.66 8.32 -3.32 9.64 -4 11 C-4 7.80389448 -3.45328458 6.58282374 -2 3.8125 C-1.62875 3.09707031 -1.2575 2.38164062 -0.875 1.64453125 C-0.441875 0.83048828 -0.441875 0.83048828 0 0 Z " fill="#8645B7" transform="translate(322,335)"/>
<path d="M0 0 C1.98 0.495 1.98 0.495 4 1 C4.33 2.98 4.66 4.96 5 7 C3.35 7 1.7 7 0 7 C-1.125 2.25 -1.125 2.25 0 0 Z " fill="#8C68F3" transform="translate(163,336)"/>
<path d="M0 0 C1.98 0 3.96 0 6 0 C6 2.64 6 5.28 6 8 C4.68 7.67 3.36 7.34 2 7 C1.7834375 5.824375 1.7834375 5.824375 1.5625 4.625 C1.12201075 2.03578982 1.12201075 2.03578982 0 0 Z " fill="#E26599" transform="translate(213,289)"/>
<path d="M0 0 C2.31 0 4.62 0 7 0 C6.67 1.32 6.34 2.64 6 4 C6 3.01 6 2.02 6 1 C1.12314139 2.35468295 -0.48592381 4.71675909 -3 9 C-3.66 8.67 -4.32 8.34 -5 8 C-5 7.01 -5 6.02 -5 5 C-4.01 5 -3.02 5 -2 5 C-1.34 3.35 -0.68 1.7 0 0 Z " fill="#DE9483" transform="translate(181,253)"/>
<path d="M0 0 C1.28132812 0.00902344 2.56265625 0.01804688 3.8828125 0.02734375 C4.87023437 0.03894531 5.85765625 0.05054688 6.875 0.0625 C6.875 0.3925 6.875 0.7225 6.875 1.0625 C5.1734375 1.2790625 5.1734375 1.2790625 3.4375 1.5 C0.06722799 1.67421478 0.06722799 1.67421478 -1.125 3.0625 C-4.0625 3.25 -4.0625 3.25 -7.125 3.0625 C-7.785 2.4025 -8.445 1.7425 -9.125 1.0625 C-6.12186252 -0.43906874 -3.33432478 -0.03031204 0 0 Z " fill="#F5C377" transform="translate(184.125,216.9375)"/>
<path d="M0 0 C1.32 1.32 2.64 2.64 4 4 C3.34 5.65 2.68 7.3 2 9 C0.68 8.34 -0.64 7.68 -2 7 C-2 5.02 -2 3.04 -2 1 C-1.34 0.67 -0.68 0.34 0 0 Z " fill="#E256AE" transform="translate(335,306)"/>
<path d="M0 0 C5.75 3.625 5.75 3.625 8 7 C6.88625 6.814375 5.7725 6.62875 4.625 6.4375 C1.17431139 5.68319343 1.17431139 5.68319343 -1 7 C-1.04254356 5.00045254 -1.04080783 2.99958364 -1 1 C-0.67 0.67 -0.34 0.34 0 0 Z " fill="#EA6F82" transform="translate(257,304)"/>
<path d="M0 0 C7.48291572 6.15034169 7.48291572 6.15034169 10 10 C7.69 9.34 5.38 8.68 3 8 C3 7.34 3 6.68 3 6 C2.34 6 1.68 6 1 6 C0.67 4.02 0.34 2.04 0 0 Z " fill="#DE6F78" transform="translate(247,294)"/>
<path d="M0 0 C0.99 0.66 1.98 1.32 3 2 C3 2.99 3 3.98 3 5 C1.35 5 -0.3 5 -2 5 C-1.34 3.35 -0.68 1.7 0 0 Z M-4 5 C-3.34 5.33 -2.68 5.66 -2 6 C-3.65 7.98 -5.3 9.96 -7 12 C-7.33 11.01 -7.66 10.02 -8 9 C-6.68 7.68 -5.36 6.36 -4 5 Z " fill="#FA946F" transform="translate(245,231)"/>
<path d="M0 0 C1.65 0.33 3.3 0.66 5 1 C5 1.66 5 2.32 5 3 C-0.47619048 8 -0.47619048 8 -3 8 C-3 7.34 -3 6.68 -3 6 C-2.34 6 -1.68 6 -1 6 C-1.33 5.01 -1.66 4.02 -2 3 C-1.34 3 -0.68 3 0 3 C0 2.01 0 1.02 0 0 Z " fill="#73D5D4" transform="translate(267,173)"/>
<path d="M0 0 C-0.99 0 -1.98 0 -3 0 C-3 0.66 -3 1.32 -3 2 C-4.11375 2.12375 -5.2275 2.2475 -6.375 2.375 C-10.03103677 2.6465813 -10.03103677 2.6465813 -12 5 C-12 4.34 -12 3.68 -12 3 C-13.98 3 -15.96 3 -18 3 C-18 2.67 -18 2.34 -18 2 C-15.75256955 1.46818825 -13.50192898 0.94992874 -11.25 0.4375 C-9.99703125 0.14746094 -8.7440625 -0.14257812 -7.453125 -0.44140625 C-4.40526252 -0.93444283 -2.82358172 -1.07666879 0 0 Z " fill="#BE4962" transform="translate(257,393)"/>
<path d="M0 0 C1.32 1.32 2.64 2.64 4 4 C3.01 4.495 3.01 4.495 2 5 C2 5.66 2 6.32 2 7 C1.01 7 0.02 7 -1 7 C-1.33 6.01 -1.66 5.02 -2 4 C-2.66 3.34 -3.32 2.68 -4 2 C-2.68 1.34 -1.36 0.68 0 0 Z " fill="#C64AA3" transform="translate(285,379)"/>
<path d="M0 0 C0.66 0.33 1.32 0.66 2 1 C-0.875 7.75 -0.875 7.75 -2 10 C-2.99 9.67 -3.98 9.34 -5 9 C-4.01 7.68 -3.02 6.36 -2 5 C-2.99 4.01 -3.98 3.02 -5 2 C-2.625 0.9375 -2.625 0.9375 0 0 Z " fill="#6E3C81" transform="translate(194,274)"/>
<path d="M0 0 C2.0625 2.3125 2.0625 2.3125 4 5 C3.67 5.99 3.34 6.98 3 8 C0 8 0 8 -1.6875 6.625 C-3 5 -3 5 -3 3 C-2.01 3 -1.02 3 0 3 C0 2.01 0 1.02 0 0 Z " fill="#FAA267" transform="translate(323,224)"/>
<path d="M0 0 C1.32 0.33 2.64 0.66 4 1 C3.34 1 2.68 1 2 1 C1.71125 1.928125 1.4225 2.85625 1.125 3.8125 C0 7 0 7 -2 10 C-2.99 9.67 -3.98 9.34 -5 9 C-4.34 9 -3.68 9 -3 9 C-2.87625 8.2575 -2.7525 7.515 -2.625 6.75 C-2.04513299 4.19858515 -1.26291261 2.2732427 0 0 Z " fill="#DADDF1" transform="translate(175,294)"/>
<path d="M0 0 C0.66 0 1.32 0 2 0 C3.98362069 2.91708924 3.9876191 4.12380904 3.625 7.75 C3.41875 8.8225 3.2125 9.895 3 11 C2.67 11 2.34 11 2 11 C0.80712589 7.12315913 0 4.08378077 0 0 Z " fill="#A07CAC" transform="translate(171,280)"/>
<path d="M0 0 C2.31 0.33 4.62 0.66 7 1 C7 1.99 7 2.98 7 4 C3.7 4 0.4 4 -3 4 C-2.01 3.67 -1.02 3.34 0 3 C0 2.01 0 1.02 0 0 Z " fill="#FB6D76" transform="translate(192,395)"/>
<path d="M0 0 C4.95 1.98 4.95 1.98 10 4 C8.68 4.33 7.36 4.66 6 5 C4.3255761 5.6469365 2.65697379 6.30959426 1 7 C1.33 5.35 1.66 3.7 2 2 C1.34 2 0.68 2 0 2 C0 1.34 0 0.68 0 0 Z " fill="#E66185" transform="translate(171,384)"/>
<path d="M0 0 C3 1 3 1 5 4 C4.34 4.66 3.68 5.32 3 6 C0.875 5.625 0.875 5.625 -1 5 C-1 1 -1 1 0 0 Z " fill="#EF5DA9" transform="translate(244,330)"/>
<path d="M0 0 C1 2 1 2 0 5.0625 C-2 8 -2 8 -5.6875 8.875 C-6.780625 8.91625 -7.87375 8.9575 -9 9 C-9 8.01 -9 7.02 -9 6 C-8.2575 5.938125 -7.515 5.87625 -6.75 5.8125 C-3.1814261 4.75814862 -2.07754772 3.00090227 0 0 Z " fill="#CC8681" transform="translate(218,259)"/>
<path d="M0 0 C0.99 0.33 1.98 0.66 3 1 C1.02 3.31 -0.96 5.62 -3 8 C-3.33 6.68 -3.66 5.36 -4 4 C-2.0625 1.75 -2.0625 1.75 0 0 Z " fill="#D99265" transform="translate(278,236)"/>
<path d="M0 0 C0.70125 0.268125 1.4025 0.53625 2.125 0.8125 C-1.625 2.8125 -1.625 2.8125 -3.875 2.8125 C-3.875 3.4725 -3.875 4.1325 -3.875 4.8125 C-4.535 4.8125 -5.195 4.8125 -5.875 4.8125 C-5.545 5.8025 -5.215 6.7925 -4.875 7.8125 C-6.195 7.4825 -7.515 7.1525 -8.875 6.8125 C-8.875 4.8125 -8.875 4.8125 -6.1875 2.125 C-3.73649867 0.13392529 -3.28531327 -0.21425956 0 0 Z " fill="#D9B586" transform="translate(278.875,177.1875)"/>
<path d="M0 0 C0 0.66 0 1.32 0 2 C-0.66 2 -1.32 2 -2 2 C-2 2.99 -2 3.98 -2 5 C-4.375 5.625 -4.375 5.625 -7 6 C-7.66 5.34 -8.32 4.68 -9 4 C-2.25 0 -2.25 0 0 0 Z " fill="#61D9CA" transform="translate(172,174)"/>
<path d="M0 0 C5.75 0.75 5.75 0.75 8 3 C5.525 4.485 5.525 4.485 3 6 C2.01 4.02 1.02 2.04 0 0 Z " fill="#A449A9" transform="translate(286,379)"/>
<path d="M0 0 C0.99 0.33 1.98 0.66 3 1 C4.1875 4.5625 4.1875 4.5625 5 8 C3.68 8 2.36 8 1 8 C1.33 6.68 1.66 5.36 2 4 C1.01 4 0.02 4 -1 4 C-0.67 2.68 -0.34 1.36 0 0 Z " fill="#585797" transform="translate(177,295)"/>
<path d="M0 0 C0.99 0.99 1.98 1.98 3 3 C2.67 3.99 2.34 4.98 2 6 C-0.97 5.01 -3.94 4.02 -7 3 C-7 2.67 -7 2.34 -7 2 C-4.69 2 -2.38 2 0 2 C0 1.34 0 0.68 0 0 Z " fill="#DC617D" transform="translate(178,391)"/>
<path d="M0 0 C0.66 0 1.32 0 2 0 C1.54803755 1.60597325 1.08817673 3.20972508 0.625 4.8125 C0.36976562 5.70582031 0.11453125 6.59914063 -0.1484375 7.51953125 C-1 10 -1 10 -3 13 C-2.67 9.37 -2.34 5.74 -2 2 C-1.34 2 -0.68 2 0 2 C0 1.34 0 0.68 0 0 Z " fill="#67ACE0" transform="translate(125,356)"/>
<path d="M0 0 C0.33 1.32 0.66 2.64 1 4 C1.66 4 2.32 4 3 4 C3 4.66 3 5.32 3 6 C2.01 6.66 1.02 7.32 0 8 C-0.66 8.99 -1.32 9.98 -2 11 C-3.13643966 7.59068103 -2.86747764 6.99664544 -1.5625 3.8125 C-1.13130859 2.73935547 -1.13130859 2.73935547 -0.69140625 1.64453125 C-0.46324219 1.10183594 -0.23507812 0.55914062 0 0 Z " fill="#9B49AC" transform="translate(328,320)"/>
<path d="M0 0 C0.99 0.33 1.98 0.66 3 1 C2.67 2.65 2.34 4.3 2 6 C1.01 6 0.02 6 -1 6 C-1.625 4.125 -1.625 4.125 -2 2 C-1.34 1.34 -0.68 0.68 0 0 Z " fill="#B64FBE" transform="translate(333,323)"/>
<path d="M0 0 C1.32 0 2.64 0 4 0 C4.33 1.98 4.66 3.96 5 6 C3.35 6.33 1.7 6.66 0 7 C0 4.69 0 2.38 0 0 Z " fill="#C75AA3" transform="translate(208,289)"/>
<path d="M0 0 C-3.28463659 2.18975773 -6.20696275 2.99806563 -10 4 C-9.67 2.68 -9.34 1.36 -9 0 C-5.62182575 -0.84454356 -3.32534757 -1.10844919 0 0 Z " fill="#62DDDB" transform="translate(188,177)"/>
<path d="M0 0 C1.9375 0.3125 1.9375 0.3125 4 1 C5.2077558 4.62326739 4.54311128 5.64146369 3 9 C1.35173889 6.03312999 0.55728913 3.34373475 0 0 Z " fill="#A34BB9" transform="translate(329,328)"/>
<path d="M0 0 C0.33 2.31 0.66 4.62 1 7 C0.01 6.34 -0.98 5.68 -2 5 C-2 4.34 -2 3.68 -2 3 C-3.65 2.67 -5.3 2.34 -7 2 C-4 0 -4 0 0 0 Z " fill="#F26C95" transform="translate(280,324)"/>
<path d="M0 0 C0.6875 1.6875 0.6875 1.6875 1 4 C-0.4375 6.75 -0.4375 6.75 -2 9 C-2.66 8.01 -3.32 7.02 -4 6 C-3.67 5.01 -3.34 4.02 -3 3 C-2.34 3 -1.68 3 -1 3 C-0.67 2.01 -0.34 1.02 0 0 Z " fill="#9674BB" transform="translate(172,288)"/>
<path d="M0 0 C-1.32 0.33 -2.64 0.66 -4 1 C-4.33 2.32 -4.66 3.64 -5 5 C-6.32 5 -7.64 5 -9 5 C-9 4.34 -9 3.68 -9 3 C-8.34 3 -7.68 3 -7 3 C-7 2.34 -7 1.68 -7 1 C-4.53721199 -0.231394 -2.7204945 -0.07159196 0 0 Z " fill="#F8C47C" transform="translate(282,179)"/>
<path d="M0 0 C0.66 0.33 1.32 0.66 2 1 C2 1.66 2 2.32 2 3 C-1.63 2.67 -5.26 2.34 -9 2 C-5.54337669 -0.30441554 -4.05142119 -0.25860135 0 0 Z " fill="#64C8C4" transform="translate(246,172)"/>
<path d="M0 0 C2.5 1.375 2.5 1.375 5 3 C5 3.66 5 4.32 5 5 C4.01 5 3.02 5 2 5 C2 5.66 2 6.32 2 7 C1.34 7 0.68 7 0 7 C-0.93423645 3.98968256 -1.04449911 3.13349732 0 0 Z " fill="#E95BC0" transform="translate(154,377)"/>
<path d="M0 0 C0.33 1.32 0.66 2.64 1 4 C1.99 4 2.98 4 4 4 C4.33 5.32 4.66 6.64 5 8 C3.125 7.6875 3.125 7.6875 1 7 C-1 4 -1 4 -0.625 1.8125 C-0.41875 1.214375 -0.2125 0.61625 0 0 Z " fill="#EF61A6" transform="translate(251,338)"/>
<path d="M0 0 C0.33 0 0.66 0 1 0 C1.3152595 5.98993047 0.68219822 9.63560356 -2 15 C-2.33 15 -2.66 15 -3 15 C-3.20086443 11.28400809 -3.1519437 10.22791555 -1 7 C-0.60612212 4.67612053 -0.26513915 2.34206251 0 0 Z " fill="#D05C8B" transform="translate(281,327)"/>
<path d="M0 0 C0.495 0.515625 0.99 1.03125 1.5 1.5625 C0.51 1.8925 -0.48 2.2225 -1.5 2.5625 C-2.16 2.2325 -2.82 1.9025 -3.5 1.5625 C-4.16 2.2225 -4.82 2.8825 -5.5 3.5625 C-5.5 2.5725 -5.5 1.5825 -5.5 0.5625 C-7.15 0.5625 -8.8 0.5625 -10.5 0.5625 C-10.5 0.2325 -10.5 -0.0975 -10.5 -0.4375 C-3.11538462 -1.79134615 -3.11538462 -1.79134615 0 0 Z " fill="#DA7B8E" transform="translate(200.5,269.4375)"/>
<path d="M0 0 C2.97 0.495 2.97 0.495 6 1 C3.64722731 3.72426311 1.37503669 4.8141763 -2 6 C-1.34 4.02 -0.68 2.04 0 0 Z " fill="#865D6A" transform="translate(180,269)"/>
<path d="M0 0 C0.33 0.99 0.66 1.98 1 3 C-2.26760563 8.63380282 -2.26760563 8.63380282 -5 10 C-5 8.35 -5 6.7 -5 5 C-3.68 4.67 -2.36 4.34 -1 4 C-0.67 2.68 -0.34 1.36 0 0 Z " fill="#DE8286" transform="translate(174,261)"/>
<path d="M0 0 C1.85776765 3.13498292 2.20140476 5.37471432 2 9 C1.01 9 0.02 9 -1 9 C-0.67 8.34 -0.34 7.68 0 7 C-0.66 6.67 -1.32 6.34 -2 6 C-1.34 4.02 -0.68 2.04 0 0 Z " fill="#D37B64" transform="translate(339,253)"/>
<path d="M0 0 C3.63 0 7.26 0 11 0 C7.96474514 2.02350324 6.80573798 2.32124018 3.3125 2.625 C2.50425781 2.69976562 1.69601563 2.77453125 0.86328125 2.8515625 C0.24839844 2.90054687 -0.36648437 2.94953125 -1 3 C-0.67 2.01 -0.34 1.02 0 0 Z " fill="#8B67D7" transform="translate(121,389)"/>
<path d="M0 0 C1.32 1.32 2.64 2.64 4 4 C-0.75 5 -0.75 5 -3 5 C-2.67 4.01 -2.34 3.02 -2 2 C-1.34 2 -0.68 2 0 2 C0 1.34 0 0.68 0 0 Z " fill="#F37087" transform="translate(265,311)"/>
<path d="M0 0 C1.65 0.33 3.3 0.66 5 1 C3.68 2.65 2.36 4.3 1 6 C-0.0625 4.125 -0.0625 4.125 -1 2 C-0.67 1.34 -0.34 0.68 0 0 Z " fill="#E563A1" transform="translate(226,304)"/>
<path d="M0 0 C0.33 1.98 0.66 3.96 1 6 C0.01 6 -0.98 6 -2 6 C-2.66 4.35 -3.32 2.7 -4 1 C-2 0 -2 0 0 0 Z " fill="#CD7CA2" transform="translate(170,271)"/>
<path d="M0 0 C0.66 0 1.32 0 2 0 C1.64950425 3.24208567 1.43778819 4.61527704 -1.0625 6.8125 C-1.701875 7.204375 -2.34125 7.59625 -3 8 C-3 6.68 -3 5.36 -3 4 C-2.34 4 -1.68 4 -1 4 C-0.67 2.68 -0.34 1.36 0 0 Z " fill="#EC9666" transform="translate(272,240)"/>
<path d="M0 0 C1.98 0 3.96 0 6 0 C5 2 5 2 3.0625 2.875 C0.57998766 4.22909764 0.03128603 5.42178493 -1 8 C-1.93065133 5.39417629 -2.14917407 4.35801776 -1.0625 1.75 C-0.711875 1.1725 -0.36125 0.595 0 0 Z " fill="#F6BF73" transform="translate(168,219)"/>
<path d="M0 0 C3.39417765 3.12621626 5.6062718 5.56541027 7 10 C6.34 10 5.68 10 5 10 C2.04798117 7.04798117 0.86722428 4.04704664 0 0 Z " fill="#DA996E" transform="translate(319,212)"/>
<path d="M0 0 C0.74955438 2.9982175 1.41070989 5.96936513 2 9 C0.35 9.33 -1.3 9.66 -3 10 C-2.01 6.7 -1.02 3.4 0 0 Z " fill="#5E9AD3" transform="translate(109,375)"/>
<path d="M0 0 C0.33 0.99 0.66 1.98 1 3 C-1.64 3.66 -4.28 4.32 -7 5 C-6.67 3.68 -6.34 2.36 -6 1 C-4.02 0.67 -2.04 0.34 0 0 Z " fill="#63A2E7" transform="translate(118,379)"/>
<path d="M0 0 C-0.33 1.98 -0.66 3.96 -1 6 C-2.65 4.35 -4.3 2.7 -6 1 C-4 0 -4 0 0 0 Z " fill="#945FEA" transform="translate(170,342)"/>
<path d="M0 0 C0.66 0 1.32 0 2 0 C3.46726798 3.81489674 2.43336419 6.29011622 1 10 C0.67 10 0.34 10 0 10 C0 6.7 0 3.4 0 0 Z " fill="#A04A98" transform="translate(197,276)"/>
<path d="M0 0 C1.32 0.33 2.64 0.66 4 1 C0.535 3.97 0.535 3.97 -3 7 C-3 6.01 -3 5.02 -3 4 C-2.34 4 -1.68 4 -1 4 C-0.67 2.68 -0.34 1.36 0 0 Z " fill="#D57A66" transform="translate(241,268)"/>
<path d="M0 0 C0.2475 0.61875 0.495 1.2375 0.75 1.875 C2.20628639 4.35068687 3.37812506 4.95125002 6 6 C3.69 6.33 1.38 6.66 -1 7 C-1.625 5.1875 -1.625 5.1875 -2 3 C-1.34 2.01 -0.68 1.02 0 0 Z " fill="#9E5B72" transform="translate(183,264)"/>
<path d="M0 0 C0.66 0.99 1.32 1.98 2 3 C0.68 5.64 -0.64 8.28 -2 11 C-3.28485596 5.86057616 -2.22194431 4.62164416 0 0 Z " fill="#6EDDDF" transform="translate(120,231)"/>
<path d="M0 0 C0.33 0 0.66 0 1 0 C1.33 1.98 1.66 3.96 2 6 C0.68 6.33 -0.64 6.66 -2 7 C-2 7.66 -2 8.32 -2 9 C-2.66 8.67 -3.32 8.34 -4 8 C-2.68 5.36 -1.36 2.72 0 0 Z " fill="#5FDBDA" transform="translate(117,222)"/>
<path d="M0 0 C0.33 0.66 0.66 1.32 1 2 C0.0625 4.125 0.0625 4.125 -1 6 C-2.65 6 -4.3 6 -6 6 C-4 4 -2 2 0 0 Z " fill="#5DD6CB" transform="translate(146,189)"/>
<path d="M0 0 C2.97 0.99 5.94 1.98 9 3 C5 5 5 5 2.75 4.625 C2.1725 4.41875 1.595 4.2125 1 4 C0.67 2.68 0.34 1.36 0 0 Z " fill="#688FD2" transform="translate(103,391)"/>
<path d="M0 0 C-0.39803561 2.88575819 -0.79009069 3.82189513 -3.0625 5.75 C-3.701875 6.1625 -4.34125 6.575 -5 7 C-5.1875 4.625 -5.1875 4.625 -5 2 C-2 0 -2 0 0 0 Z " fill="#723BAA" transform="translate(311,365)"/>
<path d="M0 0 C0.66 0.33 1.32 0.66 2 1 C0.07423885 3.43929746 -1.80090595 5.80090595 -4 8 C-4 6.02 -4 4.04 -4 2 C-2.125 0.9375 -2.125 0.9375 0 0 Z " fill="#5F3491" transform="translate(190,280)"/>
<path d="M0 0 C-4.75 3 -4.75 3 -7 3 C-7 3.66 -7 4.32 -7 5 C-7.66 5 -8.32 5 -9 5 C-8.875 3.125 -8.875 3.125 -8 1 C-2.71910112 -1.35955056 -2.71910112 -1.35955056 0 0 Z " fill="#502D7C" transform="translate(193,279)"/>
<path d="M0 0 C2.4375 0.6875 2.4375 0.6875 5 2 C5.8125 4.625 5.8125 4.625 6 7 C5.67 6.34 5.34 5.68 5 5 C2.97536745 4.34786708 2.97536745 4.34786708 1 4 C0.67 2.68 0.34 1.36 0 0 Z " fill="#C65E86" transform="translate(196,270)"/>
<path d="M0 0 C-2.31 1.32 -4.62 2.64 -7 4 C-7 2.68 -7 1.36 -7 0 C-3.86650268 -1.04449911 -3.01031744 -0.93423645 0 0 Z " fill="#61DAD4" transform="translate(162,190)"/>
<path d="M0 0 C4.95 0.99 4.95 0.99 10 2 C6 4 6 4 2.75 3.125 C1.8425 2.75375 0.935 2.3825 0 2 C0 1.34 0 0.68 0 0 Z " fill="#DA6074" transform="translate(191,392)"/>
<path d="M0 0 C0.33 0 0.66 0 1 0 C1.33 3.63 1.66 7.26 2 11 C1.01 10.67 0.02 10.34 -1 10 C-0.67 6.7 -0.34 3.4 0 0 Z " fill="#B84B90" transform="translate(332,302)"/>
<path d="M0 0 C1.32 0 2.64 0 4 0 C4.33 1.32 4.66 2.64 5 4 C4.38125 3.79375 3.7625 3.5875 3.125 3.375 C2.42375 3.25125 1.7225 3.1275 1 3 C0.34 3.66 -0.32 4.32 -1 5 C-0.67 3.35 -0.34 1.7 0 0 Z " fill="#67D7F2" transform="translate(103,306)"/>
<path d="M0 0 C2 3 2 3 1.625 5.1875 C1.41875 5.785625 1.2125 6.38375 1 7 C0.34 6.67 -0.32 6.34 -1 6 C-1.042721 4.33388095 -1.04063832 2.66617115 -1 1 C-0.67 0.67 -0.34 0.34 0 0 Z " fill="#5D49B4" transform="translate(192,301)"/>
<path d="M0 0 C1.32 0 2.64 0 4 0 C3.67 1.65 3.34 3.3 3 5 C2.34 5 1.68 5 1 5 C0.67 3.35 0.34 1.7 0 0 Z " fill="#F7E2EF" transform="translate(191,270)"/>
<path d="M0 0 C0.33 0 0.66 0 1 0 C1 1.65 1 3.3 1 5 C-0.98 5.33 -2.96 5.66 -5 6 C-3.625 4 -3.625 4 -2 2 C-1.34 2 -0.68 2 0 2 C0 1.34 0 0.68 0 0 Z " fill="#244448" transform="translate(272,174)"/>
</svg>
